<?xml version="1.0" encoding="ISO-8859-1" standalone="no"?><svg xmlns="http://www.w3.org/2000/svg" height="100%" width="100%" version="1.1" xmlns:xlink="http://www.w3.org/1999/xlink" viewBox="0 0 1000 1000"  >
<circle cy="0.0" cx="0.0" r="5" style="stroke:none; stroke-width:1; fill:#F00; "  />
<circle cy="125.0" cx="0.0" r="5" style="stroke:none; stroke-width:1; fill:#F00; "  />
<circle cy="250.0" cx="0.0" r="5" style="stroke:none; stroke-width:1; fill:#F00; "  />
<circle cy="375.0" cx="0.0" r="5" style="stroke:none; stroke-width:1; fill:#F00; "  />
<circle cy="500.0" cx="0.0" r="1.73611111111" style="stroke:none; stroke-width:1; fill:#000; "  />
<circle cy="625.0" cx="0.0" r="5" style="stroke:none; stroke-width:1; fill:#F00; "  />
<circle cy="750.0" cx="0.0" r="5" style="stroke:none; stroke-width:1; fill:#F00; "  />
<circle cy="875.0" cx="0.0" r="5" style="stroke:none; stroke-width:1; fill:#F00; "  />
<circle cy="1000.0" cx="0.0" r="5" style="stroke:none; stroke-width:1; fill:#F00; "  />
<circle cy="0.0" cx="125.0" r="5" style="stroke:none; stroke-width:1; fill:#F00; "  />
<circle cy="125.0" cx="125.0" r="5" style="stroke:none; stroke-width:1; fill:#F00; "  />
<circle cy="250.0" cx="125.0" r="5" style="stroke:none; stroke-width:1; fill:#F00; "  />
<circle cy="375.0" cx="125.0" r="6.94444444444" style="stroke:none; stroke-width:1; fill:#000; "  />
<circle cy="500.0" cx="125.0" r="5" style="stroke:none; stroke-width:1; fill:#F00; "  />
<circle cy="625.0" cx="125.0" r="6.94444444444" style="stroke:none; stroke-width:1; fill:#000; "  />
<circle cy="750.0" cx="125.0" r="5" style="stroke:none; stroke-width:1; fill:#F00; "  />
<circle cy="875.0" cx="125.0" r="5" style="stroke:none; stroke-width:1; fill:#F00; "  />
<circle cy="1000.0" cx="125.0" r="5" style="stroke:none; stroke-width:1; fill:#F00; "  />
<circle cy="0.0" cx="250.0" r="5" style="stroke:none; stroke-width:1; fill:#F00; "  />
<circle cy="125.0" cx="250.0" r="5" style="stroke:none; stroke-width:1; fill:#F00; "  />
<circle cy="250.0" cx="250.0" r="10.4166666667" style="stroke:none; stroke-width:1; fill:#000; "  />
<circle cy="375.0" cx="250.0" r="5" style="stroke:none; stroke-width:1; fill:#F00; "  />
<circle cy="500.0" cx="250.0" r="27.7777777778" style="stroke:none; stroke-width:1; fill:#000; "  />
<circle cy="625.0" cx="250.0" r="5" style="stroke:none; stroke-width:1; fill:#F00; "  />
<circle cy="750.0" cx="250.0" r="10.4166666667" style="stroke:none; stroke-width:1; fill:#000; "  />
<circle cy="875.0" cx="250.0" r="5" style="stroke:none; stroke-width:1; fill:#F00; "  />
<circle cy="1000.0" cx="250.0" r="5" style="stroke:none; stroke-width:1; fill:#F00; "  />
<circle cy="0.0" cx="375.0" r="5" style="stroke:none; stroke-width:1; fill:#F00; "  />
<circle cy="125.0" cx="375.0" r="6.94444444444" style="stroke:none; stroke-width:1; fill:#000; "  />
<circle cy="250.0" cx="375.0" r="5" style="stroke:none; stroke-width:1; fill:#F00; "  />
<circle cy="375.0" cx="375.0" r="41.6666666667" style="stroke:none; stroke-width:1; fill:#000; "  />
<circle cy="500.0" cx="375.0" r="5" style="stroke:none; stroke-width:1; fill:#F00; "  />
<circle cy="625.0" cx="375.0" r="41.6666666667" style="stroke:none; stroke-width:1; fill:#000; "  />
<circle cy="750.0" cx="375.0" r="5" style="stroke:none; stroke-width:1; fill:#F00; "  />
<circle cy="875.0" cx="375.0" r="6.94444444444" style="stroke:none; stroke-width:1; fill:#000; "  />
<circle cy="1000.0" cx="375.0" r="5" style="stroke:none; stroke-width:1; fill:#F00; "  />
<circle cy="0.0" cx="500.0" r="5" style="stroke:none; stroke-width:1; fill:#F00; "  />
<circle cy="125.0" cx="500.0" r="5" style="stroke:none; stroke-width:1; fill:#F00; "  />
<circle cy="250.0" cx="500.0" r="27.7777777778" style="stroke:none; stroke-width:1; fill:#000; "  />
<circle cy="375.0" cx="500.0" r="5" style="stroke:none; stroke-width:1; fill:#F00; "  />
<circle cy="500.0" cx="500.0" r="62.5" style="stroke:none; stroke-width:1; fill:#000; "  />
<circle cy="625.0" cx="500.0" r="5" style="stroke:none; stroke-width:1; fill:#F00; "  />
<circle cy="750.0" cx="500.0" r="27.7777777778" style="stroke:none; stroke-width:1; fill:#000; "  />
<circle cy="875.0" cx="500.0" r="5" style="stroke:none; stroke-width:1; fill:#F00; "  />
<circle cy="1000.0" cx="500.0" r="1.73611111111" style="stroke:none; stroke-width:1; fill:#000; "  />
<circle cy="0.0" cx="625.0" r="5" style="stroke:none; stroke-width:1; fill:#F00; "  />
<circle cy="125.0" cx="625.0" r="6.94444444444" style="stroke:none; stroke-width:1; fill:#000; "  />
<circle cy="250.0" cx="625.0" r="5" style="stroke:none; stroke-width:1; fill:#F00; "  />
<circle cy="375.0" cx="625.0" r="41.6666666667" style="stroke:none; stroke-width:1; fill:#000; "  />
<circle cy="500.0" cx="625.0" r="5" style="stroke:none; stroke-width:1; fill:#F00; "  />
<circle cy="625.0" cx="625.0" r="41.6666666667" style="stroke:none; stroke-width:1; fill:#000; "  />
<circle cy="750.0" cx="625.0" r="5" style="stroke:none; stroke-width:1; fill:#F00; "  />
<circle cy="875.0" cx="625.0" r="6.94444444444" style="stroke:none; stroke-width:1; fill:#000; "  />
<circle cy="1000.0" cx="625.0" r="5" style="stroke:none; stroke-width:1; fill:#F00; "  />
<circle cy="0.0" cx="750.0" r="5" style="stroke:none; stroke-width:1; fill:#F00; "  />
<circle cy="125.0" cx="750.0" r="5" style="stroke:none; stroke-width:1; fill:#F00; "  />
<circle cy="250.0" cx="750.0" r="10.4166666667" style="stroke:none; stroke-width:1; fill:#000; "  />
<circle cy="375.0" cx="750.0" r="5" style="stroke:none; stroke-width:1; fill:#F00; "  />
<circle cy="500.0" cx="750.0" r="27.7777777778" style="stroke:none; stroke-width:1; fill:#000; "  />
<circle cy="625.0" cx="750.0" r="5" style="stroke:none; stroke-width:1; fill:#F00; "  />
<circle cy="750.0" cx="750.0" r="10.4166666667" style="stroke:none; stroke-width:1; fill:#000; "  />
<circle cy="875.0" cx="750.0" r="5" style="stroke:none; stroke-width:1; fill:#F00; "  />
<circle cy="1000.0" cx="750.0" r="5" style="stroke:none; stroke-width:1; fill:#F00; "  />
<circle cy="0.0" cx="875.0" r="5" style="stroke:none; stroke-width:1; fill:#F00; "  />
<circle cy="125.0" cx="875.0" r="5" style="stroke:none; stroke-width:1; fill:#F00; "  />
<circle cy="250.0" cx="875.0" r="5" style="stroke:none; stroke-width:1; fill:#F00; "  />
<circle cy="375.0" cx="875.0" r="6.94444444444" style="stroke:none; stroke-width:1; fill:#000; "  />
<circle cy="500.0" cx="875.0" r="5" style="stroke:none; stroke-width:1; fill:#F00; "  />
<circle cy="625.0" cx="875.0" r="6.94444444444" style="stroke:none; stroke-width:1; fill:#000; "  />
<circle cy="750.0" cx="875.0" r="5" style="stroke:none; stroke-width:1; fill:#F00; "  />
<circle cy="875.0" cx="875.0" r="5" style="stroke:none; stroke-width:1; fill:#F00; "  />
<circle cy="1000.0" cx="875.0" r="5" style="stroke:none; stroke-width:1; fill:#F00; "  />
<circle cy="0.0" cx="1000.0" r="5" style="stroke:none; stroke-width:1; fill:#F00; "  />
<circle cy="125.0" cx="1000.0" r="5" style="stroke:none; stroke-width:1; fill:#F00; "  />
<circle cy="250.0" cx="1000.0" r="5" style="stroke:none; stroke-width:1; fill:#F00; "  />
<circle cy="375.0" cx="1000.0" r="5" style="stroke:none; stroke-width:1; fill:#F00; "  />
<circle cy="500.0" cx="1000.0" r="1.73611111111" style="stroke:none; stroke-width:1; fill:#000; "  />
<circle cy="625.0" cx="1000.0" r="5" style="stroke:none; stroke-width:1; fill:#F00; "  />
<circle cy="750.0" cx="1000.0" r="5" style="stroke:none; stroke-width:1; fill:#F00; "  />
<circle cy="875.0" cx="1000.0" r="5" style="stroke:none; stroke-width:1; fill:#F00; "  />
<circle cy="1000.0" cx="1000.0" r="5" style="stroke:none; stroke-width:1; fill:#F00; "  />
</svg>
