<?xml version="1.0" encoding="ISO-8859-1" standalone="no"?><svg xmlns="http://www.w3.org/2000/svg" height="100%" width="100%" version="1.1" xmlns:xlink="http://www.w3.org/1999/xlink" viewBox="0 0 1000 1000"  >
<circle cy="0.0" cx="0.0" r="10" style="stroke:none; stroke-width:1; fill:#F00; "  />
<circle cy="71.4285714286" cx="0.0" r="10" style="stroke:none; stroke-width:1; fill:#F00; "  />
<circle cy="142.857142857" cx="0.0" r="10" style="stroke:none; stroke-width:1; fill:#F00; "  />
<circle cy="214.285714286" cx="0.0" r="10" style="stroke:none; stroke-width:1; fill:#F00; "  />
<circle cy="285.714285714" cx="0.0" r="10" style="stroke:none; stroke-width:1; fill:#F00; "  />
<circle cy="357.142857143" cx="0.0" r="10" style="stroke:none; stroke-width:1; fill:#F00; "  />
<circle cy="428.571428571" cx="0.0" r="10" style="stroke:none; stroke-width:1; fill:#F00; "  />
<circle cy="500.0" cx="0.0" r="0.0217996006313" style="stroke:none; stroke-width:1; fill:#000; "  />
<circle cy="571.428571429" cx="0.0" r="10" style="stroke:none; stroke-width:1; fill:#F00; "  />
<circle cy="642.857142857" cx="0.0" r="10" style="stroke:none; stroke-width:1; fill:#F00; "  />
<circle cy="714.285714286" cx="0.0" r="10" style="stroke:none; stroke-width:1; fill:#F00; "  />
<circle cy="785.714285714" cx="0.0" r="10" style="stroke:none; stroke-width:1; fill:#F00; "  />
<circle cy="857.142857143" cx="0.0" r="10" style="stroke:none; stroke-width:1; fill:#F00; "  />
<circle cy="928.571428571" cx="0.0" r="10" style="stroke:none; stroke-width:1; fill:#F00; "  />
<circle cy="1000.0" cx="0.0" r="10" style="stroke:none; stroke-width:1; fill:#F00; "  />
<circle cy="0.0" cx="71.4285714286" r="10" style="stroke:none; stroke-width:1; fill:#F00; "  />
<circle cy="71.4285714286" cx="71.4285714286" r="10" style="stroke:none; stroke-width:1; fill:#F00; "  />
<circle cy="142.857142857" cx="71.4285714286" r="10" style="stroke:none; stroke-width:1; fill:#F00; "  />
<circle cy="214.285714286" cx="71.4285714286" r="10" style="stroke:none; stroke-width:1; fill:#F00; "  />
<circle cy="285.714285714" cx="71.4285714286" r="10" style="stroke:none; stroke-width:1; fill:#F00; "  />
<circle cy="357.142857143" cx="71.4285714286" r="10" style="stroke:none; stroke-width:1; fill:#F00; "  />
<circle cy="428.571428571" cx="71.4285714286" r="0.152597204419" style="stroke:none; stroke-width:1; fill:#000; "  />
<circle cy="500.0" cx="71.4285714286" r="10" style="stroke:none; stroke-width:1; fill:#F00; "  />
<circle cy="571.428571429" cx="71.4285714286" r="0.152597204419" style="stroke:none; stroke-width:1; fill:#000; "  />
<circle cy="642.857142857" cx="71.4285714286" r="10" style="stroke:none; stroke-width:1; fill:#F00; "  />
<circle cy="714.285714286" cx="71.4285714286" r="10" style="stroke:none; stroke-width:1; fill:#F00; "  />
<circle cy="785.714285714" cx="71.4285714286" r="10" style="stroke:none; stroke-width:1; fill:#F00; "  />
<circle cy="857.142857143" cx="71.4285714286" r="10" style="stroke:none; stroke-width:1; fill:#F00; "  />
<circle cy="928.571428571" cx="71.4285714286" r="10" style="stroke:none; stroke-width:1; fill:#F00; "  />
<circle cy="1000.0" cx="71.4285714286" r="10" style="stroke:none; stroke-width:1; fill:#F00; "  />
<circle cy="0.0" cx="142.857142857" r="10" style="stroke:none; stroke-width:1; fill:#F00; "  />
<circle cy="71.4285714286" cx="142.857142857" r="10" style="stroke:none; stroke-width:1; fill:#F00; "  />
<circle cy="142.857142857" cx="142.857142857" r="10" style="stroke:none; stroke-width:1; fill:#F00; "  />
<circle cy="214.285714286" cx="142.857142857" r="10" style="stroke:none; stroke-width:1; fill:#F00; "  />
<circle cy="285.714285714" cx="142.857142857" r="10" style="stroke:none; stroke-width:1; fill:#F00; "  />
<circle cy="357.142857143" cx="142.857142857" r="0.457791613258" style="stroke:none; stroke-width:1; fill:#000; "  />
<circle cy="428.571428571" cx="142.857142857" r="10" style="stroke:none; stroke-width:1; fill:#F00; "  />
<circle cy="500.0" cx="142.857142857" r="1.06818043093" style="stroke:none; stroke-width:1; fill:#000; "  />
<circle cy="571.428571429" cx="142.857142857" r="10" style="stroke:none; stroke-width:1; fill:#F00; "  />
<circle cy="642.857142857" cx="142.857142857" r="0.457791613258" style="stroke:none; stroke-width:1; fill:#000; "  />
<circle cy="714.285714286" cx="142.857142857" r="10" style="stroke:none; stroke-width:1; fill:#F00; "  />
<circle cy="785.714285714" cx="142.857142857" r="10" style="stroke:none; stroke-width:1; fill:#F00; "  />
<circle cy="857.142857143" cx="142.857142857" r="10" style="stroke:none; stroke-width:1; fill:#F00; "  />
<circle cy="928.571428571" cx="142.857142857" r="10" style="stroke:none; stroke-width:1; fill:#F00; "  />
<circle cy="1000.0" cx="142.857142857" r="10" style="stroke:none; stroke-width:1; fill:#F00; "  />
<circle cy="0.0" cx="214.285714286" r="10" style="stroke:none; stroke-width:1; fill:#F00; "  />
<circle cy="71.4285714286" cx="214.285714286" r="10" style="stroke:none; stroke-width:1; fill:#F00; "  />
<circle cy="142.857142857" cx="214.285714286" r="10" style="stroke:none; stroke-width:1; fill:#F00; "  />
<circle cy="214.285714286" cx="214.285714286" r="10" style="stroke:none; stroke-width:1; fill:#F00; "  />
<circle cy="285.714285714" cx="214.285714286" r="0.762986022096" style="stroke:none; stroke-width:1; fill:#000; "  />
<circle cy="357.142857143" cx="214.285714286" r="10" style="stroke:none; stroke-width:1; fill:#F00; "  />
<circle cy="428.571428571" cx="214.285714286" r="3.2045412928" style="stroke:none; stroke-width:1; fill:#000; "  />
<circle cy="500.0" cx="214.285714286" r="10" style="stroke:none; stroke-width:1; fill:#F00; "  />
<circle cy="571.428571429" cx="214.285714286" r="3.2045412928" style="stroke:none; stroke-width:1; fill:#000; "  />
<circle cy="642.857142857" cx="214.285714286" r="10" style="stroke:none; stroke-width:1; fill:#F00; "  />
<circle cy="714.285714286" cx="214.285714286" r="0.762986022096" style="stroke:none; stroke-width:1; fill:#000; "  />
<circle cy="785.714285714" cx="214.285714286" r="10" style="stroke:none; stroke-width:1; fill:#F00; "  />
<circle cy="857.142857143" cx="214.285714286" r="10" style="stroke:none; stroke-width:1; fill:#F00; "  />
<circle cy="928.571428571" cx="214.285714286" r="10" style="stroke:none; stroke-width:1; fill:#F00; "  />
<circle cy="1000.0" cx="214.285714286" r="10" style="stroke:none; stroke-width:1; fill:#F00; "  />
<circle cy="0.0" cx="285.714285714" r="10" style="stroke:none; stroke-width:1; fill:#F00; "  />
<circle cy="71.4285714286" cx="285.714285714" r="10" style="stroke:none; stroke-width:1; fill:#F00; "  />
<circle cy="142.857142857" cx="285.714285714" r="10" style="stroke:none; stroke-width:1; fill:#F00; "  />
<circle cy="214.285714286" cx="285.714285714" r="0.762986022096" style="stroke:none; stroke-width:1; fill:#000; "  />
<circle cy="285.714285714" cx="285.714285714" r="10" style="stroke:none; stroke-width:1; fill:#F00; "  />
<circle cy="357.142857143" cx="285.714285714" r="5.34090215467" style="stroke:none; stroke-width:1; fill:#000; "  />
<circle cy="428.571428571" cx="285.714285714" r="10" style="stroke:none; stroke-width:1; fill:#F00; "  />
<circle cy="500.0" cx="285.714285714" r="9.61362387841" style="stroke:none; stroke-width:1; fill:#000; "  />
<circle cy="571.428571429" cx="285.714285714" r="10" style="stroke:none; stroke-width:1; fill:#F00; "  />
<circle cy="642.857142857" cx="285.714285714" r="5.34090215467" style="stroke:none; stroke-width:1; fill:#000; "  />
<circle cy="714.285714286" cx="285.714285714" r="10" style="stroke:none; stroke-width:1; fill:#F00; "  />
<circle cy="785.714285714" cx="285.714285714" r="0.762986022096" style="stroke:none; stroke-width:1; fill:#000; "  />
<circle cy="857.142857143" cx="285.714285714" r="10" style="stroke:none; stroke-width:1; fill:#F00; "  />
<circle cy="928.571428571" cx="285.714285714" r="10" style="stroke:none; stroke-width:1; fill:#F00; "  />
<circle cy="1000.0" cx="285.714285714" r="10" style="stroke:none; stroke-width:1; fill:#F00; "  />
<circle cy="0.0" cx="357.142857143" r="10" style="stroke:none; stroke-width:1; fill:#F00; "  />
<circle cy="71.4285714286" cx="357.142857143" r="10" style="stroke:none; stroke-width:1; fill:#F00; "  />
<circle cy="142.857142857" cx="357.142857143" r="0.457791613258" style="stroke:none; stroke-width:1; fill:#000; "  />
<circle cy="214.285714286" cx="357.142857143" r="10" style="stroke:none; stroke-width:1; fill:#F00; "  />
<circle cy="285.714285714" cx="357.142857143" r="5.34090215467" style="stroke:none; stroke-width:1; fill:#000; "  />
<circle cy="357.142857143" cx="357.142857143" r="10" style="stroke:none; stroke-width:1; fill:#F00; "  />
<circle cy="428.571428571" cx="357.142857143" r="16.022706464" style="stroke:none; stroke-width:1; fill:#000; "  />
<circle cy="500.0" cx="357.142857143" r="10" style="stroke:none; stroke-width:1; fill:#F00; "  />
<circle cy="571.428571429" cx="357.142857143" r="16.022706464" style="stroke:none; stroke-width:1; fill:#000; "  />
<circle cy="642.857142857" cx="357.142857143" r="10" style="stroke:none; stroke-width:1; fill:#F00; "  />
<circle cy="714.285714286" cx="357.142857143" r="5.34090215467" style="stroke:none; stroke-width:1; fill:#000; "  />
<circle cy="785.714285714" cx="357.142857143" r="10" style="stroke:none; stroke-width:1; fill:#F00; "  />
<circle cy="857.142857143" cx="357.142857143" r="0.457791613258" style="stroke:none; stroke-width:1; fill:#000; "  />
<circle cy="928.571428571" cx="357.142857143" r="10" style="stroke:none; stroke-width:1; fill:#F00; "  />
<circle cy="1000.0" cx="357.142857143" r="10" style="stroke:none; stroke-width:1; fill:#F00; "  />
<circle cy="0.0" cx="428.571428571" r="10" style="stroke:none; stroke-width:1; fill:#F00; "  />
<circle cy="71.4285714286" cx="428.571428571" r="0.152597204419" style="stroke:none; stroke-width:1; fill:#000; "  />
<circle cy="142.857142857" cx="428.571428571" r="10" style="stroke:none; stroke-width:1; fill:#F00; "  />
<circle cy="214.285714286" cx="428.571428571" r="3.2045412928" style="stroke:none; stroke-width:1; fill:#000; "  />
<circle cy="285.714285714" cx="428.571428571" r="10" style="stroke:none; stroke-width:1; fill:#F00; "  />
<circle cy="357.142857143" cx="428.571428571" r="16.022706464" style="stroke:none; stroke-width:1; fill:#000; "  />
<circle cy="428.571428571" cx="428.571428571" r="10" style="stroke:none; stroke-width:1; fill:#F00; "  />
<circle cy="500.0" cx="428.571428571" r="26.7045107734" style="stroke:none; stroke-width:1; fill:#000; "  />
<circle cy="571.428571429" cx="428.571428571" r="10" style="stroke:none; stroke-width:1; fill:#F00; "  />
<circle cy="642.857142857" cx="428.571428571" r="16.022706464" style="stroke:none; stroke-width:1; fill:#000; "  />
<circle cy="714.285714286" cx="428.571428571" r="10" style="stroke:none; stroke-width:1; fill:#F00; "  />
<circle cy="785.714285714" cx="428.571428571" r="3.2045412928" style="stroke:none; stroke-width:1; fill:#000; "  />
<circle cy="857.142857143" cx="428.571428571" r="10" style="stroke:none; stroke-width:1; fill:#F00; "  />
<circle cy="928.571428571" cx="428.571428571" r="0.152597204419" style="stroke:none; stroke-width:1; fill:#000; "  />
<circle cy="1000.0" cx="428.571428571" r="10" style="stroke:none; stroke-width:1; fill:#F00; "  />
<circle cy="0.0" cx="500.0" r="10" style="stroke:none; stroke-width:1; fill:#F00; "  />
<circle cy="71.4285714286" cx="500.0" r="10" style="stroke:none; stroke-width:1; fill:#F00; "  />
<circle cy="142.857142857" cx="500.0" r="1.06818043093" style="stroke:none; stroke-width:1; fill:#000; "  />
<circle cy="214.285714286" cx="500.0" r="10" style="stroke:none; stroke-width:1; fill:#F00; "  />
<circle cy="285.714285714" cx="500.0" r="9.61362387841" style="stroke:none; stroke-width:1; fill:#000; "  />
<circle cy="357.142857143" cx="500.0" r="10" style="stroke:none; stroke-width:1; fill:#F00; "  />
<circle cy="428.571428571" cx="500.0" r="26.7045107734" style="stroke:none; stroke-width:1; fill:#000; "  />
<circle cy="500.0" cx="500.0" r="10" style="stroke:none; stroke-width:1; fill:#F00; "  />
<circle cy="571.428571429" cx="500.0" r="26.7045107734" style="stroke:none; stroke-width:1; fill:#000; "  />
<circle cy="642.857142857" cx="500.0" r="10" style="stroke:none; stroke-width:1; fill:#F00; "  />
<circle cy="714.285714286" cx="500.0" r="9.61362387841" style="stroke:none; stroke-width:1; fill:#000; "  />
<circle cy="785.714285714" cx="500.0" r="10" style="stroke:none; stroke-width:1; fill:#F00; "  />
<circle cy="857.142857143" cx="500.0" r="1.06818043093" style="stroke:none; stroke-width:1; fill:#000; "  />
<circle cy="928.571428571" cx="500.0" r="10" style="stroke:none; stroke-width:1; fill:#F00; "  />
<circle cy="1000.0" cx="500.0" r="0.0217996006313" style="stroke:none; stroke-width:1; fill:#000; "  />
<circle cy="0.0" cx="571.428571429" r="10" style="stroke:none; stroke-width:1; fill:#F00; "  />
<circle cy="71.4285714286" cx="571.428571429" r="0.152597204419" style="stroke:none; stroke-width:1; fill:#000; "  />
<circle cy="142.857142857" cx="571.428571429" r="10" style="stroke:none; stroke-width:1; fill:#F00; "  />
<circle cy="214.285714286" cx="571.428571429" r="3.2045412928" style="stroke:none; stroke-width:1; fill:#000; "  />
<circle cy="285.714285714" cx="571.428571429" r="10" style="stroke:none; stroke-width:1; fill:#F00; "  />
<circle cy="357.142857143" cx="571.428571429" r="16.022706464" style="stroke:none; stroke-width:1; fill:#000; "  />
<circle cy="428.571428571" cx="571.428571429" r="10" style="stroke:none; stroke-width:1; fill:#F00; "  />
<circle cy="500.0" cx="571.428571429" r="26.7045107734" style="stroke:none; stroke-width:1; fill:#000; "  />
<circle cy="571.428571429" cx="571.428571429" r="10" style="stroke:none; stroke-width:1; fill:#F00; "  />
<circle cy="642.857142857" cx="571.428571429" r="16.022706464" style="stroke:none; stroke-width:1; fill:#000; "  />
<circle cy="714.285714286" cx="571.428571429" r="10" style="stroke:none; stroke-width:1; fill:#F00; "  />
<circle cy="785.714285714" cx="571.428571429" r="3.2045412928" style="stroke:none; stroke-width:1; fill:#000; "  />
<circle cy="857.142857143" cx="571.428571429" r="10" style="stroke:none; stroke-width:1; fill:#F00; "  />
<circle cy="928.571428571" cx="571.428571429" r="0.152597204419" style="stroke:none; stroke-width:1; fill:#000; "  />
<circle cy="1000.0" cx="571.428571429" r="10" style="stroke:none; stroke-width:1; fill:#F00; "  />
<circle cy="0.0" cx="642.857142857" r="10" style="stroke:none; stroke-width:1; fill:#F00; "  />
<circle cy="71.4285714286" cx="642.857142857" r="10" style="stroke:none; stroke-width:1; fill:#F00; "  />
<circle cy="142.857142857" cx="642.857142857" r="0.457791613258" style="stroke:none; stroke-width:1; fill:#000; "  />
<circle cy="214.285714286" cx="642.857142857" r="10" style="stroke:none; stroke-width:1; fill:#F00; "  />
<circle cy="285.714285714" cx="642.857142857" r="5.34090215467" style="stroke:none; stroke-width:1; fill:#000; "  />
<circle cy="357.142857143" cx="642.857142857" r="10" style="stroke:none; stroke-width:1; fill:#F00; "  />
<circle cy="428.571428571" cx="642.857142857" r="16.022706464" style="stroke:none; stroke-width:1; fill:#000; "  />
<circle cy="500.0" cx="642.857142857" r="10" style="stroke:none; stroke-width:1; fill:#F00; "  />
<circle cy="571.428571429" cx="642.857142857" r="16.022706464" style="stroke:none; stroke-width:1; fill:#000; "  />
<circle cy="642.857142857" cx="642.857142857" r="10" style="stroke:none; stroke-width:1; fill:#F00; "  />
<circle cy="714.285714286" cx="642.857142857" r="5.34090215467" style="stroke:none; stroke-width:1; fill:#000; "  />
<circle cy="785.714285714" cx="642.857142857" r="10" style="stroke:none; stroke-width:1; fill:#F00; "  />
<circle cy="857.142857143" cx="642.857142857" r="0.457791613258" style="stroke:none; stroke-width:1; fill:#000; "  />
<circle cy="928.571428571" cx="642.857142857" r="10" style="stroke:none; stroke-width:1; fill:#F00; "  />
<circle cy="1000.0" cx="642.857142857" r="10" style="stroke:none; stroke-width:1; fill:#F00; "  />
<circle cy="0.0" cx="714.285714286" r="10" style="stroke:none; stroke-width:1; fill:#F00; "  />
<circle cy="71.4285714286" cx="714.285714286" r="10" style="stroke:none; stroke-width:1; fill:#F00; "  />
<circle cy="142.857142857" cx="714.285714286" r="10" style="stroke:none; stroke-width:1; fill:#F00; "  />
<circle cy="214.285714286" cx="714.285714286" r="0.762986022096" style="stroke:none; stroke-width:1; fill:#000; "  />
<circle cy="285.714285714" cx="714.285714286" r="10" style="stroke:none; stroke-width:1; fill:#F00; "  />
<circle cy="357.142857143" cx="714.285714286" r="5.34090215467" style="stroke:none; stroke-width:1; fill:#000; "  />
<circle cy="428.571428571" cx="714.285714286" r="10" style="stroke:none; stroke-width:1; fill:#F00; "  />
<circle cy="500.0" cx="714.285714286" r="9.61362387841" style="stroke:none; stroke-width:1; fill:#000; "  />
<circle cy="571.428571429" cx="714.285714286" r="10" style="stroke:none; stroke-width:1; fill:#F00; "  />
<circle cy="642.857142857" cx="714.285714286" r="5.34090215467" style="stroke:none; stroke-width:1; fill:#000; "  />
<circle cy="714.285714286" cx="714.285714286" r="10" style="stroke:none; stroke-width:1; fill:#F00; "  />
<circle cy="785.714285714" cx="714.285714286" r="0.762986022096" style="stroke:none; stroke-width:1; fill:#000; "  />
<circle cy="857.142857143" cx="714.285714286" r="10" style="stroke:none; stroke-width:1; fill:#F00; "  />
<circle cy="928.571428571" cx="714.285714286" r="10" style="stroke:none; stroke-width:1; fill:#F00; "  />
<circle cy="1000.0" cx="714.285714286" r="10" style="stroke:none; stroke-width:1; fill:#F00; "  />
<circle cy="0.0" cx="785.714285714" r="10" style="stroke:none; stroke-width:1; fill:#F00; "  />
<circle cy="71.4285714286" cx="785.714285714" r="10" style="stroke:none; stroke-width:1; fill:#F00; "  />
<circle cy="142.857142857" cx="785.714285714" r="10" style="stroke:none; stroke-width:1; fill:#F00; "  />
<circle cy="214.285714286" cx="785.714285714" r="10" style="stroke:none; stroke-width:1; fill:#F00; "  />
<circle cy="285.714285714" cx="785.714285714" r="0.762986022096" style="stroke:none; stroke-width:1; fill:#000; "  />
<circle cy="357.142857143" cx="785.714285714" r="10" style="stroke:none; stroke-width:1; fill:#F00; "  />
<circle cy="428.571428571" cx="785.714285714" r="3.2045412928" style="stroke:none; stroke-width:1; fill:#000; "  />
<circle cy="500.0" cx="785.714285714" r="10" style="stroke:none; stroke-width:1; fill:#F00; "  />
<circle cy="571.428571429" cx="785.714285714" r="3.2045412928" style="stroke:none; stroke-width:1; fill:#000; "  />
<circle cy="642.857142857" cx="785.714285714" r="10" style="stroke:none; stroke-width:1; fill:#F00; "  />
<circle cy="714.285714286" cx="785.714285714" r="0.762986022096" style="stroke:none; stroke-width:1; fill:#000; "  />
<circle cy="785.714285714" cx="785.714285714" r="10" style="stroke:none; stroke-width:1; fill:#F00; "  />
<circle cy="857.142857143" cx="785.714285714" r="10" style="stroke:none; stroke-width:1; fill:#F00; "  />
<circle cy="928.571428571" cx="785.714285714" r="10" style="stroke:none; stroke-width:1; fill:#F00; "  />
<circle cy="1000.0" cx="785.714285714" r="10" style="stroke:none; stroke-width:1; fill:#F00; "  />
<circle cy="0.0" cx="857.142857143" r="10" style="stroke:none; stroke-width:1; fill:#F00; "  />
<circle cy="71.4285714286" cx="857.142857143" r="10" style="stroke:none; stroke-width:1; fill:#F00; "  />
<circle cy="142.857142857" cx="857.142857143" r="10" style="stroke:none; stroke-width:1; fill:#F00; "  />
<circle cy="214.285714286" cx="857.142857143" r="10" style="stroke:none; stroke-width:1; fill:#F00; "  />
<circle cy="285.714285714" cx="857.142857143" r="10" style="stroke:none; stroke-width:1; fill:#F00; "  />
<circle cy="357.142857143" cx="857.142857143" r="0.457791613258" style="stroke:none; stroke-width:1; fill:#000; "  />
<circle cy="428.571428571" cx="857.142857143" r="10" style="stroke:none; stroke-width:1; fill:#F00; "  />
<circle cy="500.0" cx="857.142857143" r="1.06818043093" style="stroke:none; stroke-width:1; fill:#000; "  />
<circle cy="571.428571429" cx="857.142857143" r="10" style="stroke:none; stroke-width:1; fill:#F00; "  />
<circle cy="642.857142857" cx="857.142857143" r="0.457791613258" style="stroke:none; stroke-width:1; fill:#000; "  />
<circle cy="714.285714286" cx="857.142857143" r="10" style="stroke:none; stroke-width:1; fill:#F00; "  />
<circle cy="785.714285714" cx="857.142857143" r="10" style="stroke:none; stroke-width:1; fill:#F00; "  />
<circle cy="857.142857143" cx="857.142857143" r="10" style="stroke:none; stroke-width:1; fill:#F00; "  />
<circle cy="928.571428571" cx="857.142857143" r="10" style="stroke:none; stroke-width:1; fill:#F00; "  />
<circle cy="1000.0" cx="857.142857143" r="10" style="stroke:none; stroke-width:1; fill:#F00; "  />
<circle cy="0.0" cx="928.571428571" r="10" style="stroke:none; stroke-width:1; fill:#F00; "  />
<circle cy="71.4285714286" cx="928.571428571" r="10" style="stroke:none; stroke-width:1; fill:#F00; "  />
<circle cy="142.857142857" cx="928.571428571" r="10" style="stroke:none; stroke-width:1; fill:#F00; "  />
<circle cy="214.285714286" cx="928.571428571" r="10" style="stroke:none; stroke-width:1; fill:#F00; "  />
<circle cy="285.714285714" cx="928.571428571" r="10" style="stroke:none; stroke-width:1; fill:#F00; "  />
<circle cy="357.142857143" cx="928.571428571" r="10" style="stroke:none; stroke-width:1; fill:#F00; "  />
<circle cy="428.571428571" cx="928.571428571" r="0.152597204419" style="stroke:none; stroke-width:1; fill:#000; "  />
<circle cy="500.0" cx="928.571428571" r="10" style="stroke:none; stroke-width:1; fill:#F00; "  />
<circle cy="571.428571429" cx="928.571428571" r="0.152597204419" style="stroke:none; stroke-width:1; fill:#000; "  />
<circle cy="642.857142857" cx="928.571428571" r="10" style="stroke:none; stroke-width:1; fill:#F00; "  />
<circle cy="714.285714286" cx="928.571428571" r="10" style="stroke:none; stroke-width:1; fill:#F00; "  />
<circle cy="785.714285714" cx="928.571428571" r="10" style="stroke:none; stroke-width:1; fill:#F00; "  />
<circle cy="857.142857143" cx="928.571428571" r="10" style="stroke:none; stroke-width:1; fill:#F00; "  />
<circle cy="928.571428571" cx="928.571428571" r="10" style="stroke:none; stroke-width:1; fill:#F00; "  />
<circle cy="1000.0" cx="928.571428571" r="10" style="stroke:none; stroke-width:1; fill:#F00; "  />
<circle cy="0.0" cx="1000.0" r="10" style="stroke:none; stroke-width:1; fill:#F00; "  />
<circle cy="71.4285714286" cx="1000.0" r="10" style="stroke:none; stroke-width:1; fill:#F00; "  />
<circle cy="142.857142857" cx="1000.0" r="10" style="stroke:none; stroke-width:1; fill:#F00; "  />
<circle cy="214.285714286" cx="1000.0" r="10" style="stroke:none; stroke-width:1; fill:#F00; "  />
<circle cy="285.714285714" cx="1000.0" r="10" style="stroke:none; stroke-width:1; fill:#F00; "  />
<circle cy="357.142857143" cx="1000.0" r="10" style="stroke:none; stroke-width:1; fill:#F00; "  />
<circle cy="428.571428571" cx="1000.0" r="10" style="stroke:none; stroke-width:1; fill:#F00; "  />
<circle cy="500.0" cx="1000.0" r="0.0217996006313" style="stroke:none; stroke-width:1; fill:#000; "  />
<circle cy="571.428571429" cx="1000.0" r="10" style="stroke:none; stroke-width:1; fill:#F00; "  />
<circle cy="642.857142857" cx="1000.0" r="10" style="stroke:none; stroke-width:1; fill:#F00; "  />
<circle cy="714.285714286" cx="1000.0" r="10" style="stroke:none; stroke-width:1; fill:#F00; "  />
<circle cy="785.714285714" cx="1000.0" r="10" style="stroke:none; stroke-width:1; fill:#F00; "  />
<circle cy="857.142857143" cx="1000.0" r="10" style="stroke:none; stroke-width:1; fill:#F00; "  />
<circle cy="928.571428571" cx="1000.0" r="10" style="stroke:none; stroke-width:1; fill:#F00; "  />
<circle cy="1000.0" cx="1000.0" r="10" style="stroke:none; stroke-width:1; fill:#F00; "  />
</svg>
