<?xml version="1.0" encoding="ISO-8859-1" standalone="no"?><svg xmlns="http://www.w3.org/2000/svg" height="100%" width="100%" version="1.1" xmlns:xlink="http://www.w3.org/1999/xlink" viewBox="0 0 1000 1000"  >
<circle cy="0.0" cx="0.0" r="10" style="stroke:none; stroke-width:1; fill:#F00; "  />
<circle cy="50.0" cx="0.0" r="10" style="stroke:none; stroke-width:1; fill:#F00; "  />
<circle cy="100.0" cx="0.0" r="10" style="stroke:none; stroke-width:1; fill:#F00; "  />
<circle cy="150.0" cx="0.0" r="10" style="stroke:none; stroke-width:1; fill:#F00; "  />
<circle cy="200.0" cx="0.0" r="10" style="stroke:none; stroke-width:1; fill:#F00; "  />
<circle cy="250.0" cx="0.0" r="10" style="stroke:none; stroke-width:1; fill:#F00; "  />
<circle cy="300.0" cx="0.0" r="10" style="stroke:none; stroke-width:1; fill:#F00; "  />
<circle cy="350.0" cx="0.0" r="10" style="stroke:none; stroke-width:1; fill:#F00; "  />
<circle cy="400.0" cx="0.0" r="10" style="stroke:none; stroke-width:1; fill:#F00; "  />
<circle cy="450.0" cx="0.0" r="10" style="stroke:none; stroke-width:1; fill:#F00; "  />
<circle cy="500.0" cx="0.0" r="0.000238418806475" style="stroke:none; stroke-width:1; fill:#000; "  />
<circle cy="550.0" cx="0.0" r="10" style="stroke:none; stroke-width:1; fill:#F00; "  />
<circle cy="600.0" cx="0.0" r="10" style="stroke:none; stroke-width:1; fill:#F00; "  />
<circle cy="650.0" cx="0.0" r="10" style="stroke:none; stroke-width:1; fill:#F00; "  />
<circle cy="700.0" cx="0.0" r="10" style="stroke:none; stroke-width:1; fill:#F00; "  />
<circle cy="750.0" cx="0.0" r="10" style="stroke:none; stroke-width:1; fill:#F00; "  />
<circle cy="800.0" cx="0.0" r="10" style="stroke:none; stroke-width:1; fill:#F00; "  />
<circle cy="850.0" cx="0.0" r="10" style="stroke:none; stroke-width:1; fill:#F00; "  />
<circle cy="900.0" cx="0.0" r="10" style="stroke:none; stroke-width:1; fill:#F00; "  />
<circle cy="950.0" cx="0.0" r="10" style="stroke:none; stroke-width:1; fill:#F00; "  />
<circle cy="1000.0" cx="0.0" r="10" style="stroke:none; stroke-width:1; fill:#F00; "  />
<circle cy="0.0" cx="50.0" r="10" style="stroke:none; stroke-width:1; fill:#F00; "  />
<circle cy="50.0" cx="50.0" r="10" style="stroke:none; stroke-width:1; fill:#F00; "  />
<circle cy="100.0" cx="50.0" r="10" style="stroke:none; stroke-width:1; fill:#F00; "  />
<circle cy="150.0" cx="50.0" r="10" style="stroke:none; stroke-width:1; fill:#F00; "  />
<circle cy="200.0" cx="50.0" r="10" style="stroke:none; stroke-width:1; fill:#F00; "  />
<circle cy="250.0" cx="50.0" r="10" style="stroke:none; stroke-width:1; fill:#F00; "  />
<circle cy="300.0" cx="50.0" r="10" style="stroke:none; stroke-width:1; fill:#F00; "  />
<circle cy="350.0" cx="50.0" r="10" style="stroke:none; stroke-width:1; fill:#F00; "  />
<circle cy="400.0" cx="50.0" r="10" style="stroke:none; stroke-width:1; fill:#F00; "  />
<circle cy="450.0" cx="50.0" r="0.00238418806475" style="stroke:none; stroke-width:1; fill:#000; "  />
<circle cy="500.0" cx="50.0" r="10" style="stroke:none; stroke-width:1; fill:#F00; "  />
<circle cy="550.0" cx="50.0" r="0.00238418806475" style="stroke:none; stroke-width:1; fill:#000; "  />
<circle cy="600.0" cx="50.0" r="10" style="stroke:none; stroke-width:1; fill:#F00; "  />
<circle cy="650.0" cx="50.0" r="10" style="stroke:none; stroke-width:1; fill:#F00; "  />
<circle cy="700.0" cx="50.0" r="10" style="stroke:none; stroke-width:1; fill:#F00; "  />
<circle cy="750.0" cx="50.0" r="10" style="stroke:none; stroke-width:1; fill:#F00; "  />
<circle cy="800.0" cx="50.0" r="10" style="stroke:none; stroke-width:1; fill:#F00; "  />
<circle cy="850.0" cx="50.0" r="10" style="stroke:none; stroke-width:1; fill:#F00; "  />
<circle cy="900.0" cx="50.0" r="10" style="stroke:none; stroke-width:1; fill:#F00; "  />
<circle cy="950.0" cx="50.0" r="10" style="stroke:none; stroke-width:1; fill:#F00; "  />
<circle cy="1000.0" cx="50.0" r="10" style="stroke:none; stroke-width:1; fill:#F00; "  />
<circle cy="0.0" cx="100.0" r="10" style="stroke:none; stroke-width:1; fill:#F00; "  />
<circle cy="50.0" cx="100.0" r="10" style="stroke:none; stroke-width:1; fill:#F00; "  />
<circle cy="100.0" cx="100.0" r="10" style="stroke:none; stroke-width:1; fill:#F00; "  />
<circle cy="150.0" cx="100.0" r="10" style="stroke:none; stroke-width:1; fill:#F00; "  />
<circle cy="200.0" cx="100.0" r="10" style="stroke:none; stroke-width:1; fill:#F00; "  />
<circle cy="250.0" cx="100.0" r="10" style="stroke:none; stroke-width:1; fill:#F00; "  />
<circle cy="300.0" cx="100.0" r="10" style="stroke:none; stroke-width:1; fill:#F00; "  />
<circle cy="350.0" cx="100.0" r="10" style="stroke:none; stroke-width:1; fill:#F00; "  />
<circle cy="400.0" cx="100.0" r="0.0107288462914" style="stroke:none; stroke-width:1; fill:#000; "  />
<circle cy="450.0" cx="100.0" r="10" style="stroke:none; stroke-width:1; fill:#F00; "  />
<circle cy="500.0" cx="100.0" r="0.0238418806475" style="stroke:none; stroke-width:1; fill:#000; "  />
<circle cy="550.0" cx="100.0" r="10" style="stroke:none; stroke-width:1; fill:#F00; "  />
<circle cy="600.0" cx="100.0" r="0.0107288462914" style="stroke:none; stroke-width:1; fill:#000; "  />
<circle cy="650.0" cx="100.0" r="10" style="stroke:none; stroke-width:1; fill:#F00; "  />
<circle cy="700.0" cx="100.0" r="10" style="stroke:none; stroke-width:1; fill:#F00; "  />
<circle cy="750.0" cx="100.0" r="10" style="stroke:none; stroke-width:1; fill:#F00; "  />
<circle cy="800.0" cx="100.0" r="10" style="stroke:none; stroke-width:1; fill:#F00; "  />
<circle cy="850.0" cx="100.0" r="10" style="stroke:none; stroke-width:1; fill:#F00; "  />
<circle cy="900.0" cx="100.0" r="10" style="stroke:none; stroke-width:1; fill:#F00; "  />
<circle cy="950.0" cx="100.0" r="10" style="stroke:none; stroke-width:1; fill:#F00; "  />
<circle cy="1000.0" cx="100.0" r="10" style="stroke:none; stroke-width:1; fill:#F00; "  />
<circle cy="0.0" cx="150.0" r="10" style="stroke:none; stroke-width:1; fill:#F00; "  />
<circle cy="50.0" cx="150.0" r="10" style="stroke:none; stroke-width:1; fill:#F00; "  />
<circle cy="100.0" cx="150.0" r="10" style="stroke:none; stroke-width:1; fill:#F00; "  />
<circle cy="150.0" cx="150.0" r="10" style="stroke:none; stroke-width:1; fill:#F00; "  />
<circle cy="200.0" cx="150.0" r="10" style="stroke:none; stroke-width:1; fill:#F00; "  />
<circle cy="250.0" cx="150.0" r="10" style="stroke:none; stroke-width:1; fill:#F00; "  />
<circle cy="300.0" cx="150.0" r="10" style="stroke:none; stroke-width:1; fill:#F00; "  />
<circle cy="350.0" cx="150.0" r="0.0286102567771" style="stroke:none; stroke-width:1; fill:#000; "  />
<circle cy="400.0" cx="150.0" r="10" style="stroke:none; stroke-width:1; fill:#F00; "  />
<circle cy="450.0" cx="150.0" r="0.107288462914" style="stroke:none; stroke-width:1; fill:#000; "  />
<circle cy="500.0" cx="150.0" r="10" style="stroke:none; stroke-width:1; fill:#F00; "  />
<circle cy="550.0" cx="150.0" r="0.107288462914" style="stroke:none; stroke-width:1; fill:#000; "  />
<circle cy="600.0" cx="150.0" r="10" style="stroke:none; stroke-width:1; fill:#F00; "  />
<circle cy="650.0" cx="150.0" r="0.0286102567771" style="stroke:none; stroke-width:1; fill:#000; "  />
<circle cy="700.0" cx="150.0" r="10" style="stroke:none; stroke-width:1; fill:#F00; "  />
<circle cy="750.0" cx="150.0" r="10" style="stroke:none; stroke-width:1; fill:#F00; "  />
<circle cy="800.0" cx="150.0" r="10" style="stroke:none; stroke-width:1; fill:#F00; "  />
<circle cy="850.0" cx="150.0" r="10" style="stroke:none; stroke-width:1; fill:#F00; "  />
<circle cy="900.0" cx="150.0" r="10" style="stroke:none; stroke-width:1; fill:#F00; "  />
<circle cy="950.0" cx="150.0" r="10" style="stroke:none; stroke-width:1; fill:#F00; "  />
<circle cy="1000.0" cx="150.0" r="10" style="stroke:none; stroke-width:1; fill:#F00; "  />
<circle cy="0.0" cx="200.0" r="10" style="stroke:none; stroke-width:1; fill:#F00; "  />
<circle cy="50.0" cx="200.0" r="10" style="stroke:none; stroke-width:1; fill:#F00; "  />
<circle cy="100.0" cx="200.0" r="10" style="stroke:none; stroke-width:1; fill:#F00; "  />
<circle cy="150.0" cx="200.0" r="10" style="stroke:none; stroke-width:1; fill:#F00; "  />
<circle cy="200.0" cx="200.0" r="10" style="stroke:none; stroke-width:1; fill:#F00; "  />
<circle cy="250.0" cx="200.0" r="10" style="stroke:none; stroke-width:1; fill:#F00; "  />
<circle cy="300.0" cx="200.0" r="0.0500679493598" style="stroke:none; stroke-width:1; fill:#000; "  />
<circle cy="350.0" cx="200.0" r="10" style="stroke:none; stroke-width:1; fill:#F00; "  />
<circle cy="400.0" cx="200.0" r="0.286102567771" style="stroke:none; stroke-width:1; fill:#000; "  />
<circle cy="450.0" cx="200.0" r="10" style="stroke:none; stroke-width:1; fill:#F00; "  />
<circle cy="500.0" cx="200.0" r="0.482798083113" style="stroke:none; stroke-width:1; fill:#000; "  />
<circle cy="550.0" cx="200.0" r="10" style="stroke:none; stroke-width:1; fill:#F00; "  />
<circle cy="600.0" cx="200.0" r="0.286102567771" style="stroke:none; stroke-width:1; fill:#000; "  />
<circle cy="650.0" cx="200.0" r="10" style="stroke:none; stroke-width:1; fill:#F00; "  />
<circle cy="700.0" cx="200.0" r="0.0500679493598" style="stroke:none; stroke-width:1; fill:#000; "  />
<circle cy="750.0" cx="200.0" r="10" style="stroke:none; stroke-width:1; fill:#F00; "  />
<circle cy="800.0" cx="200.0" r="10" style="stroke:none; stroke-width:1; fill:#F00; "  />
<circle cy="850.0" cx="200.0" r="10" style="stroke:none; stroke-width:1; fill:#F00; "  />
<circle cy="900.0" cx="200.0" r="10" style="stroke:none; stroke-width:1; fill:#F00; "  />
<circle cy="950.0" cx="200.0" r="10" style="stroke:none; stroke-width:1; fill:#F00; "  />
<circle cy="1000.0" cx="200.0" r="10" style="stroke:none; stroke-width:1; fill:#F00; "  />
<circle cy="0.0" cx="250.0" r="10" style="stroke:none; stroke-width:1; fill:#F00; "  />
<circle cy="50.0" cx="250.0" r="10" style="stroke:none; stroke-width:1; fill:#F00; "  />
<circle cy="100.0" cx="250.0" r="10" style="stroke:none; stroke-width:1; fill:#F00; "  />
<circle cy="150.0" cx="250.0" r="10" style="stroke:none; stroke-width:1; fill:#F00; "  />
<circle cy="200.0" cx="250.0" r="10" style="stroke:none; stroke-width:1; fill:#F00; "  />
<circle cy="250.0" cx="250.0" r="0.0600815392318" style="stroke:none; stroke-width:1; fill:#000; "  />
<circle cy="300.0" cx="250.0" r="10" style="stroke:none; stroke-width:1; fill:#F00; "  />
<circle cy="350.0" cx="250.0" r="0.500679493598" style="stroke:none; stroke-width:1; fill:#000; "  />
<circle cy="400.0" cx="250.0" r="10" style="stroke:none; stroke-width:1; fill:#F00; "  />
<circle cy="450.0" cx="250.0" r="1.28746155497" style="stroke:none; stroke-width:1; fill:#000; "  />
<circle cy="500.0" cx="250.0" r="10" style="stroke:none; stroke-width:1; fill:#F00; "  />
<circle cy="550.0" cx="250.0" r="1.28746155497" style="stroke:none; stroke-width:1; fill:#000; "  />
<circle cy="600.0" cx="250.0" r="10" style="stroke:none; stroke-width:1; fill:#F00; "  />
<circle cy="650.0" cx="250.0" r="0.500679493598" style="stroke:none; stroke-width:1; fill:#000; "  />
<circle cy="700.0" cx="250.0" r="10" style="stroke:none; stroke-width:1; fill:#F00; "  />
<circle cy="750.0" cx="250.0" r="0.0600815392318" style="stroke:none; stroke-width:1; fill:#000; "  />
<circle cy="800.0" cx="250.0" r="10" style="stroke:none; stroke-width:1; fill:#F00; "  />
<circle cy="850.0" cx="250.0" r="10" style="stroke:none; stroke-width:1; fill:#F00; "  />
<circle cy="900.0" cx="250.0" r="10" style="stroke:none; stroke-width:1; fill:#F00; "  />
<circle cy="950.0" cx="250.0" r="10" style="stroke:none; stroke-width:1; fill:#F00; "  />
<circle cy="1000.0" cx="250.0" r="10" style="stroke:none; stroke-width:1; fill:#F00; "  />
<circle cy="0.0" cx="300.0" r="10" style="stroke:none; stroke-width:1; fill:#F00; "  />
<circle cy="50.0" cx="300.0" r="10" style="stroke:none; stroke-width:1; fill:#F00; "  />
<circle cy="100.0" cx="300.0" r="10" style="stroke:none; stroke-width:1; fill:#F00; "  />
<circle cy="150.0" cx="300.0" r="10" style="stroke:none; stroke-width:1; fill:#F00; "  />
<circle cy="200.0" cx="300.0" r="0.0500679493598" style="stroke:none; stroke-width:1; fill:#000; "  />
<circle cy="250.0" cx="300.0" r="10" style="stroke:none; stroke-width:1; fill:#F00; "  />
<circle cy="300.0" cx="300.0" r="0.600815392318" style="stroke:none; stroke-width:1; fill:#000; "  />
<circle cy="350.0" cx="300.0" r="10" style="stroke:none; stroke-width:1; fill:#F00; "  />
<circle cy="400.0" cx="300.0" r="2.25305772119" style="stroke:none; stroke-width:1; fill:#000; "  />
<circle cy="450.0" cx="300.0" r="10" style="stroke:none; stroke-width:1; fill:#F00; "  />
<circle cy="500.0" cx="300.0" r="3.43323081325" style="stroke:none; stroke-width:1; fill:#000; "  />
<circle cy="550.0" cx="300.0" r="10" style="stroke:none; stroke-width:1; fill:#F00; "  />
<circle cy="600.0" cx="300.0" r="2.25305772119" style="stroke:none; stroke-width:1; fill:#000; "  />
<circle cy="650.0" cx="300.0" r="10" style="stroke:none; stroke-width:1; fill:#F00; "  />
<circle cy="700.0" cx="300.0" r="0.600815392318" style="stroke:none; stroke-width:1; fill:#000; "  />
<circle cy="750.0" cx="300.0" r="10" style="stroke:none; stroke-width:1; fill:#F00; "  />
<circle cy="800.0" cx="300.0" r="0.0500679493598" style="stroke:none; stroke-width:1; fill:#000; "  />
<circle cy="850.0" cx="300.0" r="10" style="stroke:none; stroke-width:1; fill:#F00; "  />
<circle cy="900.0" cx="300.0" r="10" style="stroke:none; stroke-width:1; fill:#F00; "  />
<circle cy="950.0" cx="300.0" r="10" style="stroke:none; stroke-width:1; fill:#F00; "  />
<circle cy="1000.0" cx="300.0" r="10" style="stroke:none; stroke-width:1; fill:#F00; "  />
<circle cy="0.0" cx="350.0" r="10" style="stroke:none; stroke-width:1; fill:#F00; "  />
<circle cy="50.0" cx="350.0" r="10" style="stroke:none; stroke-width:1; fill:#F00; "  />
<circle cy="100.0" cx="350.0" r="10" style="stroke:none; stroke-width:1; fill:#F00; "  />
<circle cy="150.0" cx="350.0" r="0.0286102567771" style="stroke:none; stroke-width:1; fill:#000; "  />
<circle cy="200.0" cx="350.0" r="10" style="stroke:none; stroke-width:1; fill:#F00; "  />
<circle cy="250.0" cx="350.0" r="0.500679493598" style="stroke:none; stroke-width:1; fill:#000; "  />
<circle cy="300.0" cx="350.0" r="10" style="stroke:none; stroke-width:1; fill:#F00; "  />
<circle cy="350.0" cx="350.0" r="2.70366926543" style="stroke:none; stroke-width:1; fill:#000; "  />
<circle cy="400.0" cx="350.0" r="10" style="stroke:none; stroke-width:1; fill:#F00; "  />
<circle cy="450.0" cx="350.0" r="6.00815392318" style="stroke:none; stroke-width:1; fill:#000; "  />
<circle cy="500.0" cx="350.0" r="10" style="stroke:none; stroke-width:1; fill:#F00; "  />
<circle cy="550.0" cx="350.0" r="6.00815392318" style="stroke:none; stroke-width:1; fill:#000; "  />
<circle cy="600.0" cx="350.0" r="10" style="stroke:none; stroke-width:1; fill:#F00; "  />
<circle cy="650.0" cx="350.0" r="2.70366926543" style="stroke:none; stroke-width:1; fill:#000; "  />
<circle cy="700.0" cx="350.0" r="10" style="stroke:none; stroke-width:1; fill:#F00; "  />
<circle cy="750.0" cx="350.0" r="0.500679493598" style="stroke:none; stroke-width:1; fill:#000; "  />
<circle cy="800.0" cx="350.0" r="10" style="stroke:none; stroke-width:1; fill:#F00; "  />
<circle cy="850.0" cx="350.0" r="0.0286102567771" style="stroke:none; stroke-width:1; fill:#000; "  />
<circle cy="900.0" cx="350.0" r="10" style="stroke:none; stroke-width:1; fill:#F00; "  />
<circle cy="950.0" cx="350.0" r="10" style="stroke:none; stroke-width:1; fill:#F00; "  />
<circle cy="1000.0" cx="350.0" r="10" style="stroke:none; stroke-width:1; fill:#F00; "  />
<circle cy="0.0" cx="400.0" r="10" style="stroke:none; stroke-width:1; fill:#F00; "  />
<circle cy="50.0" cx="400.0" r="10" style="stroke:none; stroke-width:1; fill:#F00; "  />
<circle cy="100.0" cx="400.0" r="0.0107288462914" style="stroke:none; stroke-width:1; fill:#000; "  />
<circle cy="150.0" cx="400.0" r="10" style="stroke:none; stroke-width:1; fill:#F00; "  />
<circle cy="200.0" cx="400.0" r="0.286102567771" style="stroke:none; stroke-width:1; fill:#000; "  />
<circle cy="250.0" cx="400.0" r="10" style="stroke:none; stroke-width:1; fill:#F00; "  />
<circle cy="300.0" cx="400.0" r="2.25305772119" style="stroke:none; stroke-width:1; fill:#000; "  />
<circle cy="350.0" cx="400.0" r="10" style="stroke:none; stroke-width:1; fill:#F00; "  />
<circle cy="400.0" cx="400.0" r="7.20978470782" style="stroke:none; stroke-width:1; fill:#000; "  />
<circle cy="450.0" cx="400.0" r="10" style="stroke:none; stroke-width:1; fill:#F00; "  />
<circle cy="500.0" cx="400.0" r="10.5142693656" style="stroke:none; stroke-width:1; fill:#000; "  />
<circle cy="550.0" cx="400.0" r="10" style="stroke:none; stroke-width:1; fill:#F00; "  />
<circle cy="600.0" cx="400.0" r="7.20978470782" style="stroke:none; stroke-width:1; fill:#000; "  />
<circle cy="650.0" cx="400.0" r="10" style="stroke:none; stroke-width:1; fill:#F00; "  />
<circle cy="700.0" cx="400.0" r="2.25305772119" style="stroke:none; stroke-width:1; fill:#000; "  />
<circle cy="750.0" cx="400.0" r="10" style="stroke:none; stroke-width:1; fill:#F00; "  />
<circle cy="800.0" cx="400.0" r="0.286102567771" style="stroke:none; stroke-width:1; fill:#000; "  />
<circle cy="850.0" cx="400.0" r="10" style="stroke:none; stroke-width:1; fill:#F00; "  />
<circle cy="900.0" cx="400.0" r="0.0107288462914" style="stroke:none; stroke-width:1; fill:#000; "  />
<circle cy="950.0" cx="400.0" r="10" style="stroke:none; stroke-width:1; fill:#F00; "  />
<circle cy="1000.0" cx="400.0" r="10" style="stroke:none; stroke-width:1; fill:#F00; "  />
<circle cy="0.0" cx="450.0" r="10" style="stroke:none; stroke-width:1; fill:#F00; "  />
<circle cy="50.0" cx="450.0" r="0.00238418806475" style="stroke:none; stroke-width:1; fill:#000; "  />
<circle cy="100.0" cx="450.0" r="10" style="stroke:none; stroke-width:1; fill:#F00; "  />
<circle cy="150.0" cx="450.0" r="0.107288462914" style="stroke:none; stroke-width:1; fill:#000; "  />
<circle cy="200.0" cx="450.0" r="10" style="stroke:none; stroke-width:1; fill:#F00; "  />
<circle cy="250.0" cx="450.0" r="1.28746155497" style="stroke:none; stroke-width:1; fill:#000; "  />
<circle cy="300.0" cx="450.0" r="10" style="stroke:none; stroke-width:1; fill:#F00; "  />
<circle cy="350.0" cx="450.0" r="6.00815392318" style="stroke:none; stroke-width:1; fill:#000; "  />
<circle cy="400.0" cx="450.0" r="10" style="stroke:none; stroke-width:1; fill:#F00; "  />
<circle cy="450.0" cx="450.0" r="12.6171232387" style="stroke:none; stroke-width:1; fill:#000; "  />
<circle cy="500.0" cx="450.0" r="10" style="stroke:none; stroke-width:1; fill:#F00; "  />
<circle cy="550.0" cx="450.0" r="12.6171232387" style="stroke:none; stroke-width:1; fill:#000; "  />
<circle cy="600.0" cx="450.0" r="10" style="stroke:none; stroke-width:1; fill:#F00; "  />
<circle cy="650.0" cx="450.0" r="6.00815392318" style="stroke:none; stroke-width:1; fill:#000; "  />
<circle cy="700.0" cx="450.0" r="10" style="stroke:none; stroke-width:1; fill:#F00; "  />
<circle cy="750.0" cx="450.0" r="1.28746155497" style="stroke:none; stroke-width:1; fill:#000; "  />
<circle cy="800.0" cx="450.0" r="10" style="stroke:none; stroke-width:1; fill:#F00; "  />
<circle cy="850.0" cx="450.0" r="0.107288462914" style="stroke:none; stroke-width:1; fill:#000; "  />
<circle cy="900.0" cx="450.0" r="10" style="stroke:none; stroke-width:1; fill:#F00; "  />
<circle cy="950.0" cx="450.0" r="0.00238418806475" style="stroke:none; stroke-width:1; fill:#000; "  />
<circle cy="1000.0" cx="450.0" r="10" style="stroke:none; stroke-width:1; fill:#F00; "  />
<circle cy="0.0" cx="500.0" r="10" style="stroke:none; stroke-width:1; fill:#F00; "  />
<circle cy="50.0" cx="500.0" r="10" style="stroke:none; stroke-width:1; fill:#F00; "  />
<circle cy="100.0" cx="500.0" r="0.0238418806475" style="stroke:none; stroke-width:1; fill:#000; "  />
<circle cy="150.0" cx="500.0" r="10" style="stroke:none; stroke-width:1; fill:#F00; "  />
<circle cy="200.0" cx="500.0" r="0.482798083113" style="stroke:none; stroke-width:1; fill:#000; "  />
<circle cy="250.0" cx="500.0" r="10" style="stroke:none; stroke-width:1; fill:#F00; "  />
<circle cy="300.0" cx="500.0" r="3.43323081325" style="stroke:none; stroke-width:1; fill:#000; "  />
<circle cy="350.0" cx="500.0" r="10" style="stroke:none; stroke-width:1; fill:#F00; "  />
<circle cy="400.0" cx="500.0" r="10.5142693656" style="stroke:none; stroke-width:1; fill:#000; "  />
<circle cy="450.0" cx="500.0" r="10" style="stroke:none; stroke-width:1; fill:#F00; "  />
<circle cy="500.0" cx="500.0" r="15.1405478864" style="stroke:none; stroke-width:1; fill:#000; "  />
<circle cy="550.0" cx="500.0" r="10" style="stroke:none; stroke-width:1; fill:#F00; "  />
<circle cy="600.0" cx="500.0" r="10.5142693656" style="stroke:none; stroke-width:1; fill:#000; "  />
<circle cy="650.0" cx="500.0" r="10" style="stroke:none; stroke-width:1; fill:#F00; "  />
<circle cy="700.0" cx="500.0" r="3.43323081325" style="stroke:none; stroke-width:1; fill:#000; "  />
<circle cy="750.0" cx="500.0" r="10" style="stroke:none; stroke-width:1; fill:#F00; "  />
<circle cy="800.0" cx="500.0" r="0.482798083113" style="stroke:none; stroke-width:1; fill:#000; "  />
<circle cy="850.0" cx="500.0" r="10" style="stroke:none; stroke-width:1; fill:#F00; "  />
<circle cy="900.0" cx="500.0" r="0.0238418806475" style="stroke:none; stroke-width:1; fill:#000; "  />
<circle cy="950.0" cx="500.0" r="10" style="stroke:none; stroke-width:1; fill:#F00; "  />
<circle cy="1000.0" cx="500.0" r="0.000238418806475" style="stroke:none; stroke-width:1; fill:#000; "  />
<circle cy="0.0" cx="550.0" r="10" style="stroke:none; stroke-width:1; fill:#F00; "  />
<circle cy="50.0" cx="550.0" r="0.00238418806475" style="stroke:none; stroke-width:1; fill:#000; "  />
<circle cy="100.0" cx="550.0" r="10" style="stroke:none; stroke-width:1; fill:#F00; "  />
<circle cy="150.0" cx="550.0" r="0.107288462914" style="stroke:none; stroke-width:1; fill:#000; "  />
<circle cy="200.0" cx="550.0" r="10" style="stroke:none; stroke-width:1; fill:#F00; "  />
<circle cy="250.0" cx="550.0" r="1.28746155497" style="stroke:none; stroke-width:1; fill:#000; "  />
<circle cy="300.0" cx="550.0" r="10" style="stroke:none; stroke-width:1; fill:#F00; "  />
<circle cy="350.0" cx="550.0" r="6.00815392318" style="stroke:none; stroke-width:1; fill:#000; "  />
<circle cy="400.0" cx="550.0" r="10" style="stroke:none; stroke-width:1; fill:#F00; "  />
<circle cy="450.0" cx="550.0" r="12.6171232387" style="stroke:none; stroke-width:1; fill:#000; "  />
<circle cy="500.0" cx="550.0" r="10" style="stroke:none; stroke-width:1; fill:#F00; "  />
<circle cy="550.0" cx="550.0" r="12.6171232387" style="stroke:none; stroke-width:1; fill:#000; "  />
<circle cy="600.0" cx="550.0" r="10" style="stroke:none; stroke-width:1; fill:#F00; "  />
<circle cy="650.0" cx="550.0" r="6.00815392318" style="stroke:none; stroke-width:1; fill:#000; "  />
<circle cy="700.0" cx="550.0" r="10" style="stroke:none; stroke-width:1; fill:#F00; "  />
<circle cy="750.0" cx="550.0" r="1.28746155497" style="stroke:none; stroke-width:1; fill:#000; "  />
<circle cy="800.0" cx="550.0" r="10" style="stroke:none; stroke-width:1; fill:#F00; "  />
<circle cy="850.0" cx="550.0" r="0.107288462914" style="stroke:none; stroke-width:1; fill:#000; "  />
<circle cy="900.0" cx="550.0" r="10" style="stroke:none; stroke-width:1; fill:#F00; "  />
<circle cy="950.0" cx="550.0" r="0.00238418806475" style="stroke:none; stroke-width:1; fill:#000; "  />
<circle cy="1000.0" cx="550.0" r="10" style="stroke:none; stroke-width:1; fill:#F00; "  />
<circle cy="0.0" cx="600.0" r="10" style="stroke:none; stroke-width:1; fill:#F00; "  />
<circle cy="50.0" cx="600.0" r="10" style="stroke:none; stroke-width:1; fill:#F00; "  />
<circle cy="100.0" cx="600.0" r="0.0107288462914" style="stroke:none; stroke-width:1; fill:#000; "  />
<circle cy="150.0" cx="600.0" r="10" style="stroke:none; stroke-width:1; fill:#F00; "  />
<circle cy="200.0" cx="600.0" r="0.286102567771" style="stroke:none; stroke-width:1; fill:#000; "  />
<circle cy="250.0" cx="600.0" r="10" style="stroke:none; stroke-width:1; fill:#F00; "  />
<circle cy="300.0" cx="600.0" r="2.25305772119" style="stroke:none; stroke-width:1; fill:#000; "  />
<circle cy="350.0" cx="600.0" r="10" style="stroke:none; stroke-width:1; fill:#F00; "  />
<circle cy="400.0" cx="600.0" r="7.20978470782" style="stroke:none; stroke-width:1; fill:#000; "  />
<circle cy="450.0" cx="600.0" r="10" style="stroke:none; stroke-width:1; fill:#F00; "  />
<circle cy="500.0" cx="600.0" r="10.5142693656" style="stroke:none; stroke-width:1; fill:#000; "  />
<circle cy="550.0" cx="600.0" r="10" style="stroke:none; stroke-width:1; fill:#F00; "  />
<circle cy="600.0" cx="600.0" r="7.20978470782" style="stroke:none; stroke-width:1; fill:#000; "  />
<circle cy="650.0" cx="600.0" r="10" style="stroke:none; stroke-width:1; fill:#F00; "  />
<circle cy="700.0" cx="600.0" r="2.25305772119" style="stroke:none; stroke-width:1; fill:#000; "  />
<circle cy="750.0" cx="600.0" r="10" style="stroke:none; stroke-width:1; fill:#F00; "  />
<circle cy="800.0" cx="600.0" r="0.286102567771" style="stroke:none; stroke-width:1; fill:#000; "  />
<circle cy="850.0" cx="600.0" r="10" style="stroke:none; stroke-width:1; fill:#F00; "  />
<circle cy="900.0" cx="600.0" r="0.0107288462914" style="stroke:none; stroke-width:1; fill:#000; "  />
<circle cy="950.0" cx="600.0" r="10" style="stroke:none; stroke-width:1; fill:#F00; "  />
<circle cy="1000.0" cx="600.0" r="10" style="stroke:none; stroke-width:1; fill:#F00; "  />
<circle cy="0.0" cx="650.0" r="10" style="stroke:none; stroke-width:1; fill:#F00; "  />
<circle cy="50.0" cx="650.0" r="10" style="stroke:none; stroke-width:1; fill:#F00; "  />
<circle cy="100.0" cx="650.0" r="10" style="stroke:none; stroke-width:1; fill:#F00; "  />
<circle cy="150.0" cx="650.0" r="0.0286102567771" style="stroke:none; stroke-width:1; fill:#000; "  />
<circle cy="200.0" cx="650.0" r="10" style="stroke:none; stroke-width:1; fill:#F00; "  />
<circle cy="250.0" cx="650.0" r="0.500679493598" style="stroke:none; stroke-width:1; fill:#000; "  />
<circle cy="300.0" cx="650.0" r="10" style="stroke:none; stroke-width:1; fill:#F00; "  />
<circle cy="350.0" cx="650.0" r="2.70366926543" style="stroke:none; stroke-width:1; fill:#000; "  />
<circle cy="400.0" cx="650.0" r="10" style="stroke:none; stroke-width:1; fill:#F00; "  />
<circle cy="450.0" cx="650.0" r="6.00815392318" style="stroke:none; stroke-width:1; fill:#000; "  />
<circle cy="500.0" cx="650.0" r="10" style="stroke:none; stroke-width:1; fill:#F00; "  />
<circle cy="550.0" cx="650.0" r="6.00815392318" style="stroke:none; stroke-width:1; fill:#000; "  />
<circle cy="600.0" cx="650.0" r="10" style="stroke:none; stroke-width:1; fill:#F00; "  />
<circle cy="650.0" cx="650.0" r="2.70366926543" style="stroke:none; stroke-width:1; fill:#000; "  />
<circle cy="700.0" cx="650.0" r="10" style="stroke:none; stroke-width:1; fill:#F00; "  />
<circle cy="750.0" cx="650.0" r="0.500679493598" style="stroke:none; stroke-width:1; fill:#000; "  />
<circle cy="800.0" cx="650.0" r="10" style="stroke:none; stroke-width:1; fill:#F00; "  />
<circle cy="850.0" cx="650.0" r="0.0286102567771" style="stroke:none; stroke-width:1; fill:#000; "  />
<circle cy="900.0" cx="650.0" r="10" style="stroke:none; stroke-width:1; fill:#F00; "  />
<circle cy="950.0" cx="650.0" r="10" style="stroke:none; stroke-width:1; fill:#F00; "  />
<circle cy="1000.0" cx="650.0" r="10" style="stroke:none; stroke-width:1; fill:#F00; "  />
<circle cy="0.0" cx="700.0" r="10" style="stroke:none; stroke-width:1; fill:#F00; "  />
<circle cy="50.0" cx="700.0" r="10" style="stroke:none; stroke-width:1; fill:#F00; "  />
<circle cy="100.0" cx="700.0" r="10" style="stroke:none; stroke-width:1; fill:#F00; "  />
<circle cy="150.0" cx="700.0" r="10" style="stroke:none; stroke-width:1; fill:#F00; "  />
<circle cy="200.0" cx="700.0" r="0.0500679493598" style="stroke:none; stroke-width:1; fill:#000; "  />
<circle cy="250.0" cx="700.0" r="10" style="stroke:none; stroke-width:1; fill:#F00; "  />
<circle cy="300.0" cx="700.0" r="0.600815392318" style="stroke:none; stroke-width:1; fill:#000; "  />
<circle cy="350.0" cx="700.0" r="10" style="stroke:none; stroke-width:1; fill:#F00; "  />
<circle cy="400.0" cx="700.0" r="2.25305772119" style="stroke:none; stroke-width:1; fill:#000; "  />
<circle cy="450.0" cx="700.0" r="10" style="stroke:none; stroke-width:1; fill:#F00; "  />
<circle cy="500.0" cx="700.0" r="3.43323081325" style="stroke:none; stroke-width:1; fill:#000; "  />
<circle cy="550.0" cx="700.0" r="10" style="stroke:none; stroke-width:1; fill:#F00; "  />
<circle cy="600.0" cx="700.0" r="2.25305772119" style="stroke:none; stroke-width:1; fill:#000; "  />
<circle cy="650.0" cx="700.0" r="10" style="stroke:none; stroke-width:1; fill:#F00; "  />
<circle cy="700.0" cx="700.0" r="0.600815392318" style="stroke:none; stroke-width:1; fill:#000; "  />
<circle cy="750.0" cx="700.0" r="10" style="stroke:none; stroke-width:1; fill:#F00; "  />
<circle cy="800.0" cx="700.0" r="0.0500679493598" style="stroke:none; stroke-width:1; fill:#000; "  />
<circle cy="850.0" cx="700.0" r="10" style="stroke:none; stroke-width:1; fill:#F00; "  />
<circle cy="900.0" cx="700.0" r="10" style="stroke:none; stroke-width:1; fill:#F00; "  />
<circle cy="950.0" cx="700.0" r="10" style="stroke:none; stroke-width:1; fill:#F00; "  />
<circle cy="1000.0" cx="700.0" r="10" style="stroke:none; stroke-width:1; fill:#F00; "  />
<circle cy="0.0" cx="750.0" r="10" style="stroke:none; stroke-width:1; fill:#F00; "  />
<circle cy="50.0" cx="750.0" r="10" style="stroke:none; stroke-width:1; fill:#F00; "  />
<circle cy="100.0" cx="750.0" r="10" style="stroke:none; stroke-width:1; fill:#F00; "  />
<circle cy="150.0" cx="750.0" r="10" style="stroke:none; stroke-width:1; fill:#F00; "  />
<circle cy="200.0" cx="750.0" r="10" style="stroke:none; stroke-width:1; fill:#F00; "  />
<circle cy="250.0" cx="750.0" r="0.0600815392318" style="stroke:none; stroke-width:1; fill:#000; "  />
<circle cy="300.0" cx="750.0" r="10" style="stroke:none; stroke-width:1; fill:#F00; "  />
<circle cy="350.0" cx="750.0" r="0.500679493598" style="stroke:none; stroke-width:1; fill:#000; "  />
<circle cy="400.0" cx="750.0" r="10" style="stroke:none; stroke-width:1; fill:#F00; "  />
<circle cy="450.0" cx="750.0" r="1.28746155497" style="stroke:none; stroke-width:1; fill:#000; "  />
<circle cy="500.0" cx="750.0" r="10" style="stroke:none; stroke-width:1; fill:#F00; "  />
<circle cy="550.0" cx="750.0" r="1.28746155497" style="stroke:none; stroke-width:1; fill:#000; "  />
<circle cy="600.0" cx="750.0" r="10" style="stroke:none; stroke-width:1; fill:#F00; "  />
<circle cy="650.0" cx="750.0" r="0.500679493598" style="stroke:none; stroke-width:1; fill:#000; "  />
<circle cy="700.0" cx="750.0" r="10" style="stroke:none; stroke-width:1; fill:#F00; "  />
<circle cy="750.0" cx="750.0" r="0.0600815392318" style="stroke:none; stroke-width:1; fill:#000; "  />
<circle cy="800.0" cx="750.0" r="10" style="stroke:none; stroke-width:1; fill:#F00; "  />
<circle cy="850.0" cx="750.0" r="10" style="stroke:none; stroke-width:1; fill:#F00; "  />
<circle cy="900.0" cx="750.0" r="10" style="stroke:none; stroke-width:1; fill:#F00; "  />
<circle cy="950.0" cx="750.0" r="10" style="stroke:none; stroke-width:1; fill:#F00; "  />
<circle cy="1000.0" cx="750.0" r="10" style="stroke:none; stroke-width:1; fill:#F00; "  />
<circle cy="0.0" cx="800.0" r="10" style="stroke:none; stroke-width:1; fill:#F00; "  />
<circle cy="50.0" cx="800.0" r="10" style="stroke:none; stroke-width:1; fill:#F00; "  />
<circle cy="100.0" cx="800.0" r="10" style="stroke:none; stroke-width:1; fill:#F00; "  />
<circle cy="150.0" cx="800.0" r="10" style="stroke:none; stroke-width:1; fill:#F00; "  />
<circle cy="200.0" cx="800.0" r="10" style="stroke:none; stroke-width:1; fill:#F00; "  />
<circle cy="250.0" cx="800.0" r="10" style="stroke:none; stroke-width:1; fill:#F00; "  />
<circle cy="300.0" cx="800.0" r="0.0500679493598" style="stroke:none; stroke-width:1; fill:#000; "  />
<circle cy="350.0" cx="800.0" r="10" style="stroke:none; stroke-width:1; fill:#F00; "  />
<circle cy="400.0" cx="800.0" r="0.286102567771" style="stroke:none; stroke-width:1; fill:#000; "  />
<circle cy="450.0" cx="800.0" r="10" style="stroke:none; stroke-width:1; fill:#F00; "  />
<circle cy="500.0" cx="800.0" r="0.482798083113" style="stroke:none; stroke-width:1; fill:#000; "  />
<circle cy="550.0" cx="800.0" r="10" style="stroke:none; stroke-width:1; fill:#F00; "  />
<circle cy="600.0" cx="800.0" r="0.286102567771" style="stroke:none; stroke-width:1; fill:#000; "  />
<circle cy="650.0" cx="800.0" r="10" style="stroke:none; stroke-width:1; fill:#F00; "  />
<circle cy="700.0" cx="800.0" r="0.0500679493598" style="stroke:none; stroke-width:1; fill:#000; "  />
<circle cy="750.0" cx="800.0" r="10" style="stroke:none; stroke-width:1; fill:#F00; "  />
<circle cy="800.0" cx="800.0" r="10" style="stroke:none; stroke-width:1; fill:#F00; "  />
<circle cy="850.0" cx="800.0" r="10" style="stroke:none; stroke-width:1; fill:#F00; "  />
<circle cy="900.0" cx="800.0" r="10" style="stroke:none; stroke-width:1; fill:#F00; "  />
<circle cy="950.0" cx="800.0" r="10" style="stroke:none; stroke-width:1; fill:#F00; "  />
<circle cy="1000.0" cx="800.0" r="10" style="stroke:none; stroke-width:1; fill:#F00; "  />
<circle cy="0.0" cx="850.0" r="10" style="stroke:none; stroke-width:1; fill:#F00; "  />
<circle cy="50.0" cx="850.0" r="10" style="stroke:none; stroke-width:1; fill:#F00; "  />
<circle cy="100.0" cx="850.0" r="10" style="stroke:none; stroke-width:1; fill:#F00; "  />
<circle cy="150.0" cx="850.0" r="10" style="stroke:none; stroke-width:1; fill:#F00; "  />
<circle cy="200.0" cx="850.0" r="10" style="stroke:none; stroke-width:1; fill:#F00; "  />
<circle cy="250.0" cx="850.0" r="10" style="stroke:none; stroke-width:1; fill:#F00; "  />
<circle cy="300.0" cx="850.0" r="10" style="stroke:none; stroke-width:1; fill:#F00; "  />
<circle cy="350.0" cx="850.0" r="0.0286102567771" style="stroke:none; stroke-width:1; fill:#000; "  />
<circle cy="400.0" cx="850.0" r="10" style="stroke:none; stroke-width:1; fill:#F00; "  />
<circle cy="450.0" cx="850.0" r="0.107288462914" style="stroke:none; stroke-width:1; fill:#000; "  />
<circle cy="500.0" cx="850.0" r="10" style="stroke:none; stroke-width:1; fill:#F00; "  />
<circle cy="550.0" cx="850.0" r="0.107288462914" style="stroke:none; stroke-width:1; fill:#000; "  />
<circle cy="600.0" cx="850.0" r="10" style="stroke:none; stroke-width:1; fill:#F00; "  />
<circle cy="650.0" cx="850.0" r="0.0286102567771" style="stroke:none; stroke-width:1; fill:#000; "  />
<circle cy="700.0" cx="850.0" r="10" style="stroke:none; stroke-width:1; fill:#F00; "  />
<circle cy="750.0" cx="850.0" r="10" style="stroke:none; stroke-width:1; fill:#F00; "  />
<circle cy="800.0" cx="850.0" r="10" style="stroke:none; stroke-width:1; fill:#F00; "  />
<circle cy="850.0" cx="850.0" r="10" style="stroke:none; stroke-width:1; fill:#F00; "  />
<circle cy="900.0" cx="850.0" r="10" style="stroke:none; stroke-width:1; fill:#F00; "  />
<circle cy="950.0" cx="850.0" r="10" style="stroke:none; stroke-width:1; fill:#F00; "  />
<circle cy="1000.0" cx="850.0" r="10" style="stroke:none; stroke-width:1; fill:#F00; "  />
<circle cy="0.0" cx="900.0" r="10" style="stroke:none; stroke-width:1; fill:#F00; "  />
<circle cy="50.0" cx="900.0" r="10" style="stroke:none; stroke-width:1; fill:#F00; "  />
<circle cy="100.0" cx="900.0" r="10" style="stroke:none; stroke-width:1; fill:#F00; "  />
<circle cy="150.0" cx="900.0" r="10" style="stroke:none; stroke-width:1; fill:#F00; "  />
<circle cy="200.0" cx="900.0" r="10" style="stroke:none; stroke-width:1; fill:#F00; "  />
<circle cy="250.0" cx="900.0" r="10" style="stroke:none; stroke-width:1; fill:#F00; "  />
<circle cy="300.0" cx="900.0" r="10" style="stroke:none; stroke-width:1; fill:#F00; "  />
<circle cy="350.0" cx="900.0" r="10" style="stroke:none; stroke-width:1; fill:#F00; "  />
<circle cy="400.0" cx="900.0" r="0.0107288462914" style="stroke:none; stroke-width:1; fill:#000; "  />
<circle cy="450.0" cx="900.0" r="10" style="stroke:none; stroke-width:1; fill:#F00; "  />
<circle cy="500.0" cx="900.0" r="0.0238418806475" style="stroke:none; stroke-width:1; fill:#000; "  />
<circle cy="550.0" cx="900.0" r="10" style="stroke:none; stroke-width:1; fill:#F00; "  />
<circle cy="600.0" cx="900.0" r="0.0107288462914" style="stroke:none; stroke-width:1; fill:#000; "  />
<circle cy="650.0" cx="900.0" r="10" style="stroke:none; stroke-width:1; fill:#F00; "  />
<circle cy="700.0" cx="900.0" r="10" style="stroke:none; stroke-width:1; fill:#F00; "  />
<circle cy="750.0" cx="900.0" r="10" style="stroke:none; stroke-width:1; fill:#F00; "  />
<circle cy="800.0" cx="900.0" r="10" style="stroke:none; stroke-width:1; fill:#F00; "  />
<circle cy="850.0" cx="900.0" r="10" style="stroke:none; stroke-width:1; fill:#F00; "  />
<circle cy="900.0" cx="900.0" r="10" style="stroke:none; stroke-width:1; fill:#F00; "  />
<circle cy="950.0" cx="900.0" r="10" style="stroke:none; stroke-width:1; fill:#F00; "  />
<circle cy="1000.0" cx="900.0" r="10" style="stroke:none; stroke-width:1; fill:#F00; "  />
<circle cy="0.0" cx="950.0" r="10" style="stroke:none; stroke-width:1; fill:#F00; "  />
<circle cy="50.0" cx="950.0" r="10" style="stroke:none; stroke-width:1; fill:#F00; "  />
<circle cy="100.0" cx="950.0" r="10" style="stroke:none; stroke-width:1; fill:#F00; "  />
<circle cy="150.0" cx="950.0" r="10" style="stroke:none; stroke-width:1; fill:#F00; "  />
<circle cy="200.0" cx="950.0" r="10" style="stroke:none; stroke-width:1; fill:#F00; "  />
<circle cy="250.0" cx="950.0" r="10" style="stroke:none; stroke-width:1; fill:#F00; "  />
<circle cy="300.0" cx="950.0" r="10" style="stroke:none; stroke-width:1; fill:#F00; "  />
<circle cy="350.0" cx="950.0" r="10" style="stroke:none; stroke-width:1; fill:#F00; "  />
<circle cy="400.0" cx="950.0" r="10" style="stroke:none; stroke-width:1; fill:#F00; "  />
<circle cy="450.0" cx="950.0" r="0.00238418806475" style="stroke:none; stroke-width:1; fill:#000; "  />
<circle cy="500.0" cx="950.0" r="10" style="stroke:none; stroke-width:1; fill:#F00; "  />
<circle cy="550.0" cx="950.0" r="0.00238418806475" style="stroke:none; stroke-width:1; fill:#000; "  />
<circle cy="600.0" cx="950.0" r="10" style="stroke:none; stroke-width:1; fill:#F00; "  />
<circle cy="650.0" cx="950.0" r="10" style="stroke:none; stroke-width:1; fill:#F00; "  />
<circle cy="700.0" cx="950.0" r="10" style="stroke:none; stroke-width:1; fill:#F00; "  />
<circle cy="750.0" cx="950.0" r="10" style="stroke:none; stroke-width:1; fill:#F00; "  />
<circle cy="800.0" cx="950.0" r="10" style="stroke:none; stroke-width:1; fill:#F00; "  />
<circle cy="850.0" cx="950.0" r="10" style="stroke:none; stroke-width:1; fill:#F00; "  />
<circle cy="900.0" cx="950.0" r="10" style="stroke:none; stroke-width:1; fill:#F00; "  />
<circle cy="950.0" cx="950.0" r="10" style="stroke:none; stroke-width:1; fill:#F00; "  />
<circle cy="1000.0" cx="950.0" r="10" style="stroke:none; stroke-width:1; fill:#F00; "  />
<circle cy="0.0" cx="1000.0" r="10" style="stroke:none; stroke-width:1; fill:#F00; "  />
<circle cy="50.0" cx="1000.0" r="10" style="stroke:none; stroke-width:1; fill:#F00; "  />
<circle cy="100.0" cx="1000.0" r="10" style="stroke:none; stroke-width:1; fill:#F00; "  />
<circle cy="150.0" cx="1000.0" r="10" style="stroke:none; stroke-width:1; fill:#F00; "  />
<circle cy="200.0" cx="1000.0" r="10" style="stroke:none; stroke-width:1; fill:#F00; "  />
<circle cy="250.0" cx="1000.0" r="10" style="stroke:none; stroke-width:1; fill:#F00; "  />
<circle cy="300.0" cx="1000.0" r="10" style="stroke:none; stroke-width:1; fill:#F00; "  />
<circle cy="350.0" cx="1000.0" r="10" style="stroke:none; stroke-width:1; fill:#F00; "  />
<circle cy="400.0" cx="1000.0" r="10" style="stroke:none; stroke-width:1; fill:#F00; "  />
<circle cy="450.0" cx="1000.0" r="10" style="stroke:none; stroke-width:1; fill:#F00; "  />
<circle cy="500.0" cx="1000.0" r="0.000238418806475" style="stroke:none; stroke-width:1; fill:#000; "  />
<circle cy="550.0" cx="1000.0" r="10" style="stroke:none; stroke-width:1; fill:#F00; "  />
<circle cy="600.0" cx="1000.0" r="10" style="stroke:none; stroke-width:1; fill:#F00; "  />
<circle cy="650.0" cx="1000.0" r="10" style="stroke:none; stroke-width:1; fill:#F00; "  />
<circle cy="700.0" cx="1000.0" r="10" style="stroke:none; stroke-width:1; fill:#F00; "  />
<circle cy="750.0" cx="1000.0" r="10" style="stroke:none; stroke-width:1; fill:#F00; "  />
<circle cy="800.0" cx="1000.0" r="10" style="stroke:none; stroke-width:1; fill:#F00; "  />
<circle cy="850.0" cx="1000.0" r="10" style="stroke:none; stroke-width:1; fill:#F00; "  />
<circle cy="900.0" cx="1000.0" r="10" style="stroke:none; stroke-width:1; fill:#F00; "  />
<circle cy="950.0" cx="1000.0" r="10" style="stroke:none; stroke-width:1; fill:#F00; "  />
<circle cy="1000.0" cx="1000.0" r="10" style="stroke:none; stroke-width:1; fill:#F00; "  />
</svg>
