<?xml version="1.0" encoding="utf-8" ?>
<svg baseProfile="full" height="10cm" version="1.1" viewBox="-7.000000 -1.000000 20.000000 20.000000" width="10cm" xmlns="http://www.w3.org/2000/svg" xmlns:ev="http://www.w3.org/2001/xml-events" xmlns:xlink="http://www.w3.org/1999/xlink"><defs /><g id="todo" transform="scale(1,-1) translate(0,-18.0)"><g id="ejes"><line stroke="rgb(0%,0%,0%)" stroke-dasharray="[0.1, 0.2]" stroke-width="0.05" x1="12.0" x2="-6.0" y1="0.0" y2="0.0" /><line stroke="rgb(0%,0%,0%)" stroke-dasharray="[0.1, 0.2]" stroke-width="0.05" x1="0.0" x2="0.0" y1="0.0" y2="18.0" /></g><line stroke="rgb(34%,100%,34%)" stroke-dasharray="[]" stroke-width="0.05" x1="0" x2="-8.881784197e-16" y1="0" y2="18" /><g id="path"><line stroke="rgb(100%,40%,40%)" stroke-dasharray="[0.1, 0.2]" stroke-width="0.05" x1="0" x2="-0.333333333333" y1="0" y2="1.0" /><line stroke="rgb(100%,40%,40%)" stroke-dasharray="[0.1, 0.2]" stroke-width="0.05" x1="-0.333333333333" x2="-0.666666666667" y1="1.0" y2="2.0" /><line stroke="rgb(100%,40%,40%)" stroke-dasharray="[0.1, 0.2]" stroke-width="0.05" x1="-0.666666666667" x2="-1.0" y1="2.0" y2="3.0" /><line stroke="rgb(100%,40%,40%)" stroke-dasharray="[0.1, 0.2]" stroke-width="0.05" x1="-1.0" x2="-1.33333333333" y1="3.0" y2="4.0" /><line stroke="rgb(100%,40%,40%)" stroke-dasharray="[0.1, 0.2]" stroke-width="0.05" x1="-1.33333333333" x2="-0.666666666667" y1="4.0" y2="5.0" /><line stroke="rgb(100%,40%,40%)" stroke-dasharray="[0.1, 0.2]" stroke-width="0.05" x1="-0.666666666667" x2="-1.11022302463e-16" y1="5.0" y2="6.0" /><line stroke="rgb(100%,40%,40%)" stroke-dasharray="[0.1, 0.2]" stroke-width="0.05" x1="-1.11022302463e-16" x2="-0.333333333333" y1="6.0" y2="7.0" /><line stroke="rgb(100%,40%,40%)" stroke-dasharray="[0.1, 0.2]" stroke-width="0.05" x1="-0.333333333333" x2="-0.666666666667" y1="7.0" y2="8.0" /><line stroke="rgb(100%,40%,40%)" stroke-dasharray="[0.1, 0.2]" stroke-width="0.05" x1="-0.666666666667" x2="-1.0" y1="8.0" y2="9.0" /><line stroke="rgb(100%,40%,40%)" stroke-dasharray="[0.1, 0.2]" stroke-width="0.05" x1="-1.0" x2="-1.33333333333" y1="9.0" y2="10.0" /><line stroke="rgb(100%,40%,40%)" stroke-dasharray="[0.1, 0.2]" stroke-width="0.05" x1="-1.33333333333" x2="-0.666666666667" y1="10.0" y2="11.0" /><line stroke="rgb(100%,40%,40%)" stroke-dasharray="[0.1, 0.2]" stroke-width="0.05" x1="-0.666666666667" x2="0.0" y1="11.0" y2="12.0" /><line stroke="rgb(100%,40%,40%)" stroke-dasharray="[0.1, 0.2]" stroke-width="0.05" x1="0.0" x2="-0.333333333333" y1="12.0" y2="13.0" /><line stroke="rgb(100%,40%,40%)" stroke-dasharray="[0.1, 0.2]" stroke-width="0.05" x1="-0.333333333333" x2="-0.666666666667" y1="13.0" y2="14.0" /><line stroke="rgb(100%,40%,40%)" stroke-dasharray="[0.1, 0.2]" stroke-width="0.05" x1="-0.666666666667" x2="-1.0" y1="14.0" y2="15.0" /><line stroke="rgb(100%,40%,40%)" stroke-dasharray="[0.1, 0.2]" stroke-width="0.05" x1="-1.0" x2="-1.33333333333" y1="15.0" y2="16.0" /><line stroke="rgb(100%,40%,40%)" stroke-dasharray="[0.1, 0.2]" stroke-width="0.05" x1="-1.33333333333" x2="-0.666666666667" y1="16.0" y2="17.0" /><line stroke="rgb(100%,40%,40%)" stroke-dasharray="[0.1, 0.2]" stroke-width="0.05" x1="-0.666666666667" x2="-8.881784197e-16" y1="17.0" y2="18.0" /><circle cx="0" cy="0" fill="rgb(0%,0%,0%)" r="0.25" stroke="rgb(0%,0%,0%)" stroke-width="0.05" /><circle cx="-0.333333333333" cy="1.0" fill="rgb(0%,0%,0%)" r="0.25" stroke="rgb(0%,0%,0%)" stroke-width="0.05" /><circle cx="-0.666666666667" cy="2.0" fill="rgb(0%,0%,0%)" r="0.25" stroke="rgb(0%,0%,0%)" stroke-width="0.05" /><circle cx="-1.0" cy="3.0" fill="rgb(0%,0%,0%)" r="0.25" stroke="rgb(0%,0%,0%)" stroke-width="0.05" /><circle cx="-1.33333333333" cy="4.0" fill="rgb(0%,0%,0%)" r="0.25" stroke="rgb(0%,0%,0%)" stroke-width="0.05" /><circle cx="-0.666666666667" cy="5.0" fill="rgb(0%,0%,0%)" r="0.25" stroke="rgb(0%,0%,0%)" stroke-width="0.05" /><circle cx="-1.11022302463e-16" cy="6.0" fill="rgb(0%,0%,0%)" r="0.25" stroke="rgb(0%,0%,0%)" stroke-width="0.05" /><circle cx="-0.333333333333" cy="7.0" fill="rgb(0%,0%,0%)" r="0.25" stroke="rgb(0%,0%,0%)" stroke-width="0.05" /><circle cx="-0.666666666667" cy="8.0" fill="rgb(0%,0%,0%)" r="0.25" stroke="rgb(0%,0%,0%)" stroke-width="0.05" /><circle cx="-1.0" cy="9.0" fill="rgb(0%,0%,0%)" r="0.25" stroke="rgb(0%,0%,0%)" stroke-width="0.05" /><circle cx="-1.33333333333" cy="10.0" fill="rgb(0%,0%,0%)" r="0.25" stroke="rgb(0%,0%,0%)" stroke-width="0.05" /><circle cx="-0.666666666667" cy="11.0" fill="rgb(0%,0%,0%)" r="0.25" stroke="rgb(0%,0%,0%)" stroke-width="0.05" /><circle cx="0.0" cy="12.0" fill="rgb(0%,0%,0%)" r="0.25" stroke="rgb(0%,0%,0%)" stroke-width="0.05" /><circle cx="-0.333333333333" cy="13.0" fill="rgb(0%,0%,0%)" r="0.25" stroke="rgb(0%,0%,0%)" stroke-width="0.05" /><circle cx="-0.666666666667" cy="14.0" fill="rgb(0%,0%,0%)" r="0.25" stroke="rgb(0%,0%,0%)" stroke-width="0.05" /><circle cx="-1.0" cy="15.0" fill="rgb(0%,0%,0%)" r="0.25" stroke="rgb(0%,0%,0%)" stroke-width="0.05" /><circle cx="-1.33333333333" cy="16.0" fill="rgb(0%,0%,0%)" r="0.25" stroke="rgb(0%,0%,0%)" stroke-width="0.05" /><circle cx="-0.666666666667" cy="17.0" fill="rgb(0%,0%,0%)" r="0.25" stroke="rgb(0%,0%,0%)" stroke-width="0.05" /><circle cx="-8.881784197e-16" cy="18.0" fill="rgb(0%,0%,0%)" r="0.25" stroke="rgb(0%,0%,0%)" stroke-width="0.05" /></g><g id="path"><line stroke="rgb(100%,40%,40%)" stroke-dasharray="[0.1, 0.2]" stroke-width="0.05" x1="0" x2="0.666666666667" y1="0" y2="1.0" /><line stroke="rgb(100%,40%,40%)" stroke-dasharray="[0.1, 0.2]" stroke-width="0.05" x1="0.666666666667" x2="1.33333333333" y1="1.0" y2="2.0" /><line stroke="rgb(100%,40%,40%)" stroke-dasharray="[0.1, 0.2]" stroke-width="0.05" x1="1.33333333333" x2="1.0" y1="2.0" y2="3.0" /><line stroke="rgb(100%,40%,40%)" stroke-dasharray="[0.1, 0.2]" stroke-width="0.05" x1="1.0" x2="0.666666666667" y1="3.0" y2="4.0" /><line stroke="rgb(100%,40%,40%)" stroke-dasharray="[0.1, 0.2]" stroke-width="0.05" x1="0.666666666667" x2="0.333333333333" y1="4.0" y2="5.0" /><line stroke="rgb(100%,40%,40%)" stroke-dasharray="[0.1, 0.2]" stroke-width="0.05" x1="0.333333333333" x2="-1.11022302463e-16" y1="5.0" y2="6.0" /><line stroke="rgb(100%,40%,40%)" stroke-dasharray="[0.1, 0.2]" stroke-width="0.05" x1="-1.11022302463e-16" x2="0.666666666667" y1="6.0" y2="7.0" /><line stroke="rgb(100%,40%,40%)" stroke-dasharray="[0.1, 0.2]" stroke-width="0.05" x1="0.666666666667" x2="1.33333333333" y1="7.0" y2="8.0" /><line stroke="rgb(100%,40%,40%)" stroke-dasharray="[0.1, 0.2]" stroke-width="0.05" x1="1.33333333333" x2="1.0" y1="8.0" y2="9.0" /><line stroke="rgb(100%,40%,40%)" stroke-dasharray="[0.1, 0.2]" stroke-width="0.05" x1="1.0" x2="0.666666666667" y1="9.0" y2="10.0" /><line stroke="rgb(100%,40%,40%)" stroke-dasharray="[0.1, 0.2]" stroke-width="0.05" x1="0.666666666667" x2="0.333333333333" y1="10.0" y2="11.0" /><line stroke="rgb(100%,40%,40%)" stroke-dasharray="[0.1, 0.2]" stroke-width="0.05" x1="0.333333333333" x2="0.0" y1="11.0" y2="12.0" /><line stroke="rgb(100%,40%,40%)" stroke-dasharray="[0.1, 0.2]" stroke-width="0.05" x1="0.0" x2="0.666666666667" y1="12.0" y2="13.0" /><line stroke="rgb(100%,40%,40%)" stroke-dasharray="[0.1, 0.2]" stroke-width="0.05" x1="0.666666666667" x2="1.33333333333" y1="13.0" y2="14.0" /><line stroke="rgb(100%,40%,40%)" stroke-dasharray="[0.1, 0.2]" stroke-width="0.05" x1="1.33333333333" x2="1.0" y1="14.0" y2="15.0" /><line stroke="rgb(100%,40%,40%)" stroke-dasharray="[0.1, 0.2]" stroke-width="0.05" x1="1.0" x2="0.666666666667" y1="15.0" y2="16.0" /><line stroke="rgb(100%,40%,40%)" stroke-dasharray="[0.1, 0.2]" stroke-width="0.05" x1="0.666666666667" x2="0.333333333333" y1="16.0" y2="17.0" /><line stroke="rgb(100%,40%,40%)" stroke-dasharray="[0.1, 0.2]" stroke-width="0.05" x1="0.333333333333" x2="-8.881784197e-16" y1="17.0" y2="18.0" /><circle cx="0" cy="0" fill="rgb(0%,0%,0%)" r="0.25" stroke="rgb(0%,0%,0%)" stroke-width="0.05" /><circle cx="0.666666666667" cy="1.0" fill="rgb(0%,0%,0%)" r="0.25" stroke="rgb(0%,0%,0%)" stroke-width="0.05" /><circle cx="1.33333333333" cy="2.0" fill="rgb(0%,0%,0%)" r="0.25" stroke="rgb(0%,0%,0%)" stroke-width="0.05" /><circle cx="1.0" cy="3.0" fill="rgb(0%,0%,0%)" r="0.25" stroke="rgb(0%,0%,0%)" stroke-width="0.05" /><circle cx="0.666666666667" cy="4.0" fill="rgb(0%,0%,0%)" r="0.25" stroke="rgb(0%,0%,0%)" stroke-width="0.05" /><circle cx="0.333333333333" cy="5.0" fill="rgb(0%,0%,0%)" r="0.25" stroke="rgb(0%,0%,0%)" stroke-width="0.05" /><circle cx="-1.11022302463e-16" cy="6.0" fill="rgb(0%,0%,0%)" r="0.25" stroke="rgb(0%,0%,0%)" stroke-width="0.05" /><circle cx="0.666666666667" cy="7.0" fill="rgb(0%,0%,0%)" r="0.25" stroke="rgb(0%,0%,0%)" stroke-width="0.05" /><circle cx="1.33333333333" cy="8.0" fill="rgb(0%,0%,0%)" r="0.25" stroke="rgb(0%,0%,0%)" stroke-width="0.05" /><circle cx="1.0" cy="9.0" fill="rgb(0%,0%,0%)" r="0.25" stroke="rgb(0%,0%,0%)" stroke-width="0.05" /><circle cx="0.666666666667" cy="10.0" fill="rgb(0%,0%,0%)" r="0.25" stroke="rgb(0%,0%,0%)" stroke-width="0.05" /><circle cx="0.333333333333" cy="11.0" fill="rgb(0%,0%,0%)" r="0.25" stroke="rgb(0%,0%,0%)" stroke-width="0.05" /><circle cx="0.0" cy="12.0" fill="rgb(0%,0%,0%)" r="0.25" stroke="rgb(0%,0%,0%)" stroke-width="0.05" /><circle cx="0.666666666667" cy="13.0" fill="rgb(0%,0%,0%)" r="0.25" stroke="rgb(0%,0%,0%)" stroke-width="0.05" /><circle cx="1.33333333333" cy="14.0" fill="rgb(0%,0%,0%)" r="0.25" stroke="rgb(0%,0%,0%)" stroke-width="0.05" /><circle cx="1.0" cy="15.0" fill="rgb(0%,0%,0%)" r="0.25" stroke="rgb(0%,0%,0%)" stroke-width="0.05" /><circle cx="0.666666666667" cy="16.0" fill="rgb(0%,0%,0%)" r="0.25" stroke="rgb(0%,0%,0%)" stroke-width="0.05" /><circle cx="0.333333333333" cy="17.0" fill="rgb(0%,0%,0%)" r="0.25" stroke="rgb(0%,0%,0%)" stroke-width="0.05" /><circle cx="-8.881784197e-16" cy="18.0" fill="rgb(0%,0%,0%)" r="0.25" stroke="rgb(0%,0%,0%)" stroke-width="0.05" /></g><g id="malla"><circle cx="0.0" cy="0.0" fill="rgb(100%,100%,100%)" r="0.25" stroke="rgb(0%,0%,0%)" stroke-width="0.05" /><circle cx="0.666666666667" cy="1.0" fill="rgb(100%,100%,100%)" r="0.25" stroke="rgb(0%,0%,0%)" stroke-width="0.05" /><circle cx="-0.333333333333" cy="1.0" fill="rgb(100%,100%,100%)" r="0.25" stroke="rgb(0%,0%,0%)" stroke-width="0.05" /><circle cx="1.33333333333" cy="2.0" fill="rgb(100%,100%,100%)" r="0.25" stroke="rgb(0%,0%,0%)" stroke-width="0.05" /><circle cx="0.333333333333" cy="2.0" fill="rgb(100%,100%,100%)" r="0.25" stroke="rgb(0%,0%,0%)" stroke-width="0.05" /><circle cx="-0.666666666667" cy="2.0" fill="rgb(100%,100%,100%)" r="0.25" stroke="rgb(0%,0%,0%)" stroke-width="0.05" /><circle cx="2.0" cy="3.0" fill="rgb(100%,100%,100%)" r="0.25" stroke="rgb(0%,0%,0%)" stroke-width="0.05" /><circle cx="1.0" cy="3.0" fill="rgb(100%,100%,100%)" r="0.25" stroke="rgb(0%,0%,0%)" stroke-width="0.05" /><circle cx="0.0" cy="3.0" fill="rgb(100%,100%,100%)" r="0.25" stroke="rgb(0%,0%,0%)" stroke-width="0.05" /><circle cx="-1.0" cy="3.0" fill="rgb(100%,100%,100%)" r="0.25" stroke="rgb(0%,0%,0%)" stroke-width="0.05" /><circle cx="2.66666666667" cy="4.0" fill="rgb(100%,100%,100%)" r="0.25" stroke="rgb(0%,0%,0%)" stroke-width="0.05" /><circle cx="1.66666666667" cy="4.0" fill="rgb(100%,100%,100%)" r="0.25" stroke="rgb(0%,0%,0%)" stroke-width="0.05" /><circle cx="0.666666666667" cy="4.0" fill="rgb(100%,100%,100%)" r="0.25" stroke="rgb(0%,0%,0%)" stroke-width="0.05" /><circle cx="-0.333333333333" cy="4.0" fill="rgb(100%,100%,100%)" r="0.25" stroke="rgb(0%,0%,0%)" stroke-width="0.05" /><circle cx="-1.33333333333" cy="4.0" fill="rgb(100%,100%,100%)" r="0.25" stroke="rgb(0%,0%,0%)" stroke-width="0.05" /><circle cx="3.33333333333" cy="5.0" fill="rgb(100%,100%,100%)" r="0.25" stroke="rgb(0%,0%,0%)" stroke-width="0.05" /><circle cx="2.33333333333" cy="5.0" fill="rgb(100%,100%,100%)" r="0.25" stroke="rgb(0%,0%,0%)" stroke-width="0.05" /><circle cx="1.33333333333" cy="5.0" fill="rgb(100%,100%,100%)" r="0.25" stroke="rgb(0%,0%,0%)" stroke-width="0.05" /><circle cx="0.333333333333" cy="5.0" fill="rgb(100%,100%,100%)" r="0.25" stroke="rgb(0%,0%,0%)" stroke-width="0.05" /><circle cx="-0.666666666667" cy="5.0" fill="rgb(100%,100%,100%)" r="0.25" stroke="rgb(0%,0%,0%)" stroke-width="0.05" /><circle cx="-1.66666666667" cy="5.0" fill="rgb(100%,100%,100%)" r="0.25" stroke="rgb(0%,0%,0%)" stroke-width="0.05" /><circle cx="4.0" cy="6.0" fill="rgb(100%,100%,100%)" r="0.25" stroke="rgb(0%,0%,0%)" stroke-width="0.05" /><circle cx="3.0" cy="6.0" fill="rgb(100%,100%,100%)" r="0.25" stroke="rgb(0%,0%,0%)" stroke-width="0.05" /><circle cx="2.0" cy="6.0" fill="rgb(100%,100%,100%)" r="0.25" stroke="rgb(0%,0%,0%)" stroke-width="0.05" /><circle cx="1.0" cy="6.0" fill="rgb(100%,100%,100%)" r="0.25" stroke="rgb(0%,0%,0%)" stroke-width="0.05" /><circle cx="-1.11022302463e-16" cy="6.0" fill="rgb(100%,100%,100%)" r="0.25" stroke="rgb(0%,0%,0%)" stroke-width="0.05" /><circle cx="-1.0" cy="6.0" fill="rgb(100%,100%,100%)" r="0.25" stroke="rgb(0%,0%,0%)" stroke-width="0.05" /><circle cx="-2.0" cy="6.0" fill="rgb(100%,100%,100%)" r="0.25" stroke="rgb(0%,0%,0%)" stroke-width="0.05" /><circle cx="4.66666666667" cy="7.0" fill="rgb(100%,100%,100%)" r="0.25" stroke="rgb(0%,0%,0%)" stroke-width="0.05" /><circle cx="3.66666666667" cy="7.0" fill="rgb(100%,100%,100%)" r="0.25" stroke="rgb(0%,0%,0%)" stroke-width="0.05" /><circle cx="2.66666666667" cy="7.0" fill="rgb(100%,100%,100%)" r="0.25" stroke="rgb(0%,0%,0%)" stroke-width="0.05" /><circle cx="1.66666666667" cy="7.0" fill="rgb(100%,100%,100%)" r="0.25" stroke="rgb(0%,0%,0%)" stroke-width="0.05" /><circle cx="0.666666666667" cy="7.0" fill="rgb(100%,100%,100%)" r="0.25" stroke="rgb(0%,0%,0%)" stroke-width="0.05" /><circle cx="-0.333333333333" cy="7.0" fill="rgb(100%,100%,100%)" r="0.25" stroke="rgb(0%,0%,0%)" stroke-width="0.05" /><circle cx="-1.33333333333" cy="7.0" fill="rgb(100%,100%,100%)" r="0.25" stroke="rgb(0%,0%,0%)" stroke-width="0.05" /><circle cx="-2.33333333333" cy="7.0" fill="rgb(100%,100%,100%)" r="0.25" stroke="rgb(0%,0%,0%)" stroke-width="0.05" /><circle cx="5.33333333333" cy="8.0" fill="rgb(100%,100%,100%)" r="0.25" stroke="rgb(0%,0%,0%)" stroke-width="0.05" /><circle cx="4.33333333333" cy="8.0" fill="rgb(100%,100%,100%)" r="0.25" stroke="rgb(0%,0%,0%)" stroke-width="0.05" /><circle cx="3.33333333333" cy="8.0" fill="rgb(100%,100%,100%)" r="0.25" stroke="rgb(0%,0%,0%)" stroke-width="0.05" /><circle cx="2.33333333333" cy="8.0" fill="rgb(100%,100%,100%)" r="0.25" stroke="rgb(0%,0%,0%)" stroke-width="0.05" /><circle cx="1.33333333333" cy="8.0" fill="rgb(100%,100%,100%)" r="0.25" stroke="rgb(0%,0%,0%)" stroke-width="0.05" /><circle cx="0.333333333333" cy="8.0" fill="rgb(100%,100%,100%)" r="0.25" stroke="rgb(0%,0%,0%)" stroke-width="0.05" /><circle cx="-0.666666666667" cy="8.0" fill="rgb(100%,100%,100%)" r="0.25" stroke="rgb(0%,0%,0%)" stroke-width="0.05" /><circle cx="-1.66666666667" cy="8.0" fill="rgb(100%,100%,100%)" r="0.25" stroke="rgb(0%,0%,0%)" stroke-width="0.05" /><circle cx="-2.66666666667" cy="8.0" fill="rgb(100%,100%,100%)" r="0.25" stroke="rgb(0%,0%,0%)" stroke-width="0.05" /><circle cx="6.0" cy="9.0" fill="rgb(100%,100%,100%)" r="0.25" stroke="rgb(0%,0%,0%)" stroke-width="0.05" /><circle cx="5.0" cy="9.0" fill="rgb(100%,100%,100%)" r="0.25" stroke="rgb(0%,0%,0%)" stroke-width="0.05" /><circle cx="4.0" cy="9.0" fill="rgb(100%,100%,100%)" r="0.25" stroke="rgb(0%,0%,0%)" stroke-width="0.05" /><circle cx="3.0" cy="9.0" fill="rgb(100%,100%,100%)" r="0.25" stroke="rgb(0%,0%,0%)" stroke-width="0.05" /><circle cx="2.0" cy="9.0" fill="rgb(100%,100%,100%)" r="0.25" stroke="rgb(0%,0%,0%)" stroke-width="0.05" /><circle cx="1.0" cy="9.0" fill="rgb(100%,100%,100%)" r="0.25" stroke="rgb(0%,0%,0%)" stroke-width="0.05" /><circle cx="0.0" cy="9.0" fill="rgb(100%,100%,100%)" r="0.25" stroke="rgb(0%,0%,0%)" stroke-width="0.05" /><circle cx="-1.0" cy="9.0" fill="rgb(100%,100%,100%)" r="0.25" stroke="rgb(0%,0%,0%)" stroke-width="0.05" /><circle cx="-2.0" cy="9.0" fill="rgb(100%,100%,100%)" r="0.25" stroke="rgb(0%,0%,0%)" stroke-width="0.05" /><circle cx="-3.0" cy="9.0" fill="rgb(100%,100%,100%)" r="0.25" stroke="rgb(0%,0%,0%)" stroke-width="0.05" /><circle cx="6.66666666667" cy="10.0" fill="rgb(100%,100%,100%)" r="0.25" stroke="rgb(0%,0%,0%)" stroke-width="0.05" /><circle cx="5.66666666667" cy="10.0" fill="rgb(100%,100%,100%)" r="0.25" stroke="rgb(0%,0%,0%)" stroke-width="0.05" /><circle cx="4.66666666667" cy="10.0" fill="rgb(100%,100%,100%)" r="0.25" stroke="rgb(0%,0%,0%)" stroke-width="0.05" /><circle cx="3.66666666667" cy="10.0" fill="rgb(100%,100%,100%)" r="0.25" stroke="rgb(0%,0%,0%)" stroke-width="0.05" /><circle cx="2.66666666667" cy="10.0" fill="rgb(100%,100%,100%)" r="0.25" stroke="rgb(0%,0%,0%)" stroke-width="0.05" /><circle cx="1.66666666667" cy="10.0" fill="rgb(100%,100%,100%)" r="0.25" stroke="rgb(0%,0%,0%)" stroke-width="0.05" /><circle cx="0.666666666667" cy="10.0" fill="rgb(100%,100%,100%)" r="0.25" stroke="rgb(0%,0%,0%)" stroke-width="0.05" /><circle cx="-0.333333333333" cy="10.0" fill="rgb(100%,100%,100%)" r="0.25" stroke="rgb(0%,0%,0%)" stroke-width="0.05" /><circle cx="-1.33333333333" cy="10.0" fill="rgb(100%,100%,100%)" r="0.25" stroke="rgb(0%,0%,0%)" stroke-width="0.05" /><circle cx="-2.33333333333" cy="10.0" fill="rgb(100%,100%,100%)" r="0.25" stroke="rgb(0%,0%,0%)" stroke-width="0.05" /><circle cx="-3.33333333333" cy="10.0" fill="rgb(100%,100%,100%)" r="0.25" stroke="rgb(0%,0%,0%)" stroke-width="0.05" /><circle cx="7.33333333333" cy="11.0" fill="rgb(100%,100%,100%)" r="0.25" stroke="rgb(0%,0%,0%)" stroke-width="0.05" /><circle cx="6.33333333333" cy="11.0" fill="rgb(100%,100%,100%)" r="0.25" stroke="rgb(0%,0%,0%)" stroke-width="0.05" /><circle cx="5.33333333333" cy="11.0" fill="rgb(100%,100%,100%)" r="0.25" stroke="rgb(0%,0%,0%)" stroke-width="0.05" /><circle cx="4.33333333333" cy="11.0" fill="rgb(100%,100%,100%)" r="0.25" stroke="rgb(0%,0%,0%)" stroke-width="0.05" /><circle cx="3.33333333333" cy="11.0" fill="rgb(100%,100%,100%)" r="0.25" stroke="rgb(0%,0%,0%)" stroke-width="0.05" /><circle cx="2.33333333333" cy="11.0" fill="rgb(100%,100%,100%)" r="0.25" stroke="rgb(0%,0%,0%)" stroke-width="0.05" /><circle cx="1.33333333333" cy="11.0" fill="rgb(100%,100%,100%)" r="0.25" stroke="rgb(0%,0%,0%)" stroke-width="0.05" /><circle cx="0.333333333333" cy="11.0" fill="rgb(100%,100%,100%)" r="0.25" stroke="rgb(0%,0%,0%)" stroke-width="0.05" /><circle cx="-0.666666666667" cy="11.0" fill="rgb(100%,100%,100%)" r="0.25" stroke="rgb(0%,0%,0%)" stroke-width="0.05" /><circle cx="-1.66666666667" cy="11.0" fill="rgb(100%,100%,100%)" r="0.25" stroke="rgb(0%,0%,0%)" stroke-width="0.05" /><circle cx="-2.66666666667" cy="11.0" fill="rgb(100%,100%,100%)" r="0.25" stroke="rgb(0%,0%,0%)" stroke-width="0.05" /><circle cx="-3.66666666667" cy="11.0" fill="rgb(100%,100%,100%)" r="0.25" stroke="rgb(0%,0%,0%)" stroke-width="0.05" /><circle cx="8.0" cy="12.0" fill="rgb(100%,100%,100%)" r="0.25" stroke="rgb(0%,0%,0%)" stroke-width="0.05" /><circle cx="7.0" cy="12.0" fill="rgb(100%,100%,100%)" r="0.25" stroke="rgb(0%,0%,0%)" stroke-width="0.05" /><circle cx="6.0" cy="12.0" fill="rgb(100%,100%,100%)" r="0.25" stroke="rgb(0%,0%,0%)" stroke-width="0.05" /><circle cx="5.0" cy="12.0" fill="rgb(100%,100%,100%)" r="0.25" stroke="rgb(0%,0%,0%)" stroke-width="0.05" /><circle cx="4.0" cy="12.0" fill="rgb(100%,100%,100%)" r="0.25" stroke="rgb(0%,0%,0%)" stroke-width="0.05" /><circle cx="3.0" cy="12.0" fill="rgb(100%,100%,100%)" r="0.25" stroke="rgb(0%,0%,0%)" stroke-width="0.05" /><circle cx="2.0" cy="12.0" fill="rgb(100%,100%,100%)" r="0.25" stroke="rgb(0%,0%,0%)" stroke-width="0.05" /><circle cx="1.0" cy="12.0" fill="rgb(100%,100%,100%)" r="0.25" stroke="rgb(0%,0%,0%)" stroke-width="0.05" /><circle cx="0.0" cy="12.0" fill="rgb(100%,100%,100%)" r="0.25" stroke="rgb(0%,0%,0%)" stroke-width="0.05" /><circle cx="-1.0" cy="12.0" fill="rgb(100%,100%,100%)" r="0.25" stroke="rgb(0%,0%,0%)" stroke-width="0.05" /><circle cx="-2.0" cy="12.0" fill="rgb(100%,100%,100%)" r="0.25" stroke="rgb(0%,0%,0%)" stroke-width="0.05" /><circle cx="-3.0" cy="12.0" fill="rgb(100%,100%,100%)" r="0.25" stroke="rgb(0%,0%,0%)" stroke-width="0.05" /><circle cx="-4.0" cy="12.0" fill="rgb(100%,100%,100%)" r="0.25" stroke="rgb(0%,0%,0%)" stroke-width="0.05" /><circle cx="8.66666666667" cy="13.0" fill="rgb(100%,100%,100%)" r="0.25" stroke="rgb(0%,0%,0%)" stroke-width="0.05" /><circle cx="7.66666666667" cy="13.0" fill="rgb(100%,100%,100%)" r="0.25" stroke="rgb(0%,0%,0%)" stroke-width="0.05" /><circle cx="6.66666666667" cy="13.0" fill="rgb(100%,100%,100%)" r="0.25" stroke="rgb(0%,0%,0%)" stroke-width="0.05" /><circle cx="5.66666666667" cy="13.0" fill="rgb(100%,100%,100%)" r="0.25" stroke="rgb(0%,0%,0%)" stroke-width="0.05" /><circle cx="4.66666666667" cy="13.0" fill="rgb(100%,100%,100%)" r="0.25" stroke="rgb(0%,0%,0%)" stroke-width="0.05" /><circle cx="3.66666666667" cy="13.0" fill="rgb(100%,100%,100%)" r="0.25" stroke="rgb(0%,0%,0%)" stroke-width="0.05" /><circle cx="2.66666666667" cy="13.0" fill="rgb(100%,100%,100%)" r="0.25" stroke="rgb(0%,0%,0%)" stroke-width="0.05" /><circle cx="1.66666666667" cy="13.0" fill="rgb(100%,100%,100%)" r="0.25" stroke="rgb(0%,0%,0%)" stroke-width="0.05" /><circle cx="0.666666666667" cy="13.0" fill="rgb(100%,100%,100%)" r="0.25" stroke="rgb(0%,0%,0%)" stroke-width="0.05" /><circle cx="-0.333333333333" cy="13.0" fill="rgb(100%,100%,100%)" r="0.25" stroke="rgb(0%,0%,0%)" stroke-width="0.05" /><circle cx="-1.33333333333" cy="13.0" fill="rgb(100%,100%,100%)" r="0.25" stroke="rgb(0%,0%,0%)" stroke-width="0.05" /><circle cx="-2.33333333333" cy="13.0" fill="rgb(100%,100%,100%)" r="0.25" stroke="rgb(0%,0%,0%)" stroke-width="0.05" /><circle cx="-3.33333333333" cy="13.0" fill="rgb(100%,100%,100%)" r="0.25" stroke="rgb(0%,0%,0%)" stroke-width="0.05" /><circle cx="-4.33333333333" cy="13.0" fill="rgb(100%,100%,100%)" r="0.25" stroke="rgb(0%,0%,0%)" stroke-width="0.05" /><circle cx="9.33333333333" cy="14.0" fill="rgb(100%,100%,100%)" r="0.25" stroke="rgb(0%,0%,0%)" stroke-width="0.05" /><circle cx="8.33333333333" cy="14.0" fill="rgb(100%,100%,100%)" r="0.25" stroke="rgb(0%,0%,0%)" stroke-width="0.05" /><circle cx="7.33333333333" cy="14.0" fill="rgb(100%,100%,100%)" r="0.25" stroke="rgb(0%,0%,0%)" stroke-width="0.05" /><circle cx="6.33333333333" cy="14.0" fill="rgb(100%,100%,100%)" r="0.25" stroke="rgb(0%,0%,0%)" stroke-width="0.05" /><circle cx="5.33333333333" cy="14.0" fill="rgb(100%,100%,100%)" r="0.25" stroke="rgb(0%,0%,0%)" stroke-width="0.05" /><circle cx="4.33333333333" cy="14.0" fill="rgb(100%,100%,100%)" r="0.25" stroke="rgb(0%,0%,0%)" stroke-width="0.05" /><circle cx="3.33333333333" cy="14.0" fill="rgb(100%,100%,100%)" r="0.25" stroke="rgb(0%,0%,0%)" stroke-width="0.05" /><circle cx="2.33333333333" cy="14.0" fill="rgb(100%,100%,100%)" r="0.25" stroke="rgb(0%,0%,0%)" stroke-width="0.05" /><circle cx="1.33333333333" cy="14.0" fill="rgb(100%,100%,100%)" r="0.25" stroke="rgb(0%,0%,0%)" stroke-width="0.05" /><circle cx="0.333333333333" cy="14.0" fill="rgb(100%,100%,100%)" r="0.25" stroke="rgb(0%,0%,0%)" stroke-width="0.05" /><circle cx="-0.666666666667" cy="14.0" fill="rgb(100%,100%,100%)" r="0.25" stroke="rgb(0%,0%,0%)" stroke-width="0.05" /><circle cx="-1.66666666667" cy="14.0" fill="rgb(100%,100%,100%)" r="0.25" stroke="rgb(0%,0%,0%)" stroke-width="0.05" /><circle cx="-2.66666666667" cy="14.0" fill="rgb(100%,100%,100%)" r="0.25" stroke="rgb(0%,0%,0%)" stroke-width="0.05" /><circle cx="-3.66666666667" cy="14.0" fill="rgb(100%,100%,100%)" r="0.25" stroke="rgb(0%,0%,0%)" stroke-width="0.05" /><circle cx="-4.66666666667" cy="14.0" fill="rgb(100%,100%,100%)" r="0.25" stroke="rgb(0%,0%,0%)" stroke-width="0.05" /><circle cx="10.0" cy="15.0" fill="rgb(100%,100%,100%)" r="0.25" stroke="rgb(0%,0%,0%)" stroke-width="0.05" /><circle cx="9.0" cy="15.0" fill="rgb(100%,100%,100%)" r="0.25" stroke="rgb(0%,0%,0%)" stroke-width="0.05" /><circle cx="8.0" cy="15.0" fill="rgb(100%,100%,100%)" r="0.25" stroke="rgb(0%,0%,0%)" stroke-width="0.05" /><circle cx="7.0" cy="15.0" fill="rgb(100%,100%,100%)" r="0.25" stroke="rgb(0%,0%,0%)" stroke-width="0.05" /><circle cx="6.0" cy="15.0" fill="rgb(100%,100%,100%)" r="0.25" stroke="rgb(0%,0%,0%)" stroke-width="0.05" /><circle cx="5.0" cy="15.0" fill="rgb(100%,100%,100%)" r="0.25" stroke="rgb(0%,0%,0%)" stroke-width="0.05" /><circle cx="4.0" cy="15.0" fill="rgb(100%,100%,100%)" r="0.25" stroke="rgb(0%,0%,0%)" stroke-width="0.05" /><circle cx="3.0" cy="15.0" fill="rgb(100%,100%,100%)" r="0.25" stroke="rgb(0%,0%,0%)" stroke-width="0.05" /><circle cx="2.0" cy="15.0" fill="rgb(100%,100%,100%)" r="0.25" stroke="rgb(0%,0%,0%)" stroke-width="0.05" /><circle cx="1.0" cy="15.0" fill="rgb(100%,100%,100%)" r="0.25" stroke="rgb(0%,0%,0%)" stroke-width="0.05" /><circle cx="-4.4408920985e-16" cy="15.0" fill="rgb(100%,100%,100%)" r="0.25" stroke="rgb(0%,0%,0%)" stroke-width="0.05" /><circle cx="-1.0" cy="15.0" fill="rgb(100%,100%,100%)" r="0.25" stroke="rgb(0%,0%,0%)" stroke-width="0.05" /><circle cx="-2.0" cy="15.0" fill="rgb(100%,100%,100%)" r="0.25" stroke="rgb(0%,0%,0%)" stroke-width="0.05" /><circle cx="-3.0" cy="15.0" fill="rgb(100%,100%,100%)" r="0.25" stroke="rgb(0%,0%,0%)" stroke-width="0.05" /><circle cx="-4.0" cy="15.0" fill="rgb(100%,100%,100%)" r="0.25" stroke="rgb(0%,0%,0%)" stroke-width="0.05" /><circle cx="-5.0" cy="15.0" fill="rgb(100%,100%,100%)" r="0.25" stroke="rgb(0%,0%,0%)" stroke-width="0.05" /><circle cx="10.6666666667" cy="16.0" fill="rgb(100%,100%,100%)" r="0.25" stroke="rgb(0%,0%,0%)" stroke-width="0.05" /><circle cx="9.66666666667" cy="16.0" fill="rgb(100%,100%,100%)" r="0.25" stroke="rgb(0%,0%,0%)" stroke-width="0.05" /><circle cx="8.66666666667" cy="16.0" fill="rgb(100%,100%,100%)" r="0.25" stroke="rgb(0%,0%,0%)" stroke-width="0.05" /><circle cx="7.66666666667" cy="16.0" fill="rgb(100%,100%,100%)" r="0.25" stroke="rgb(0%,0%,0%)" stroke-width="0.05" /><circle cx="6.66666666667" cy="16.0" fill="rgb(100%,100%,100%)" r="0.25" stroke="rgb(0%,0%,0%)" stroke-width="0.05" /><circle cx="5.66666666667" cy="16.0" fill="rgb(100%,100%,100%)" r="0.25" stroke="rgb(0%,0%,0%)" stroke-width="0.05" /><circle cx="4.66666666667" cy="16.0" fill="rgb(100%,100%,100%)" r="0.25" stroke="rgb(0%,0%,0%)" stroke-width="0.05" /><circle cx="3.66666666667" cy="16.0" fill="rgb(100%,100%,100%)" r="0.25" stroke="rgb(0%,0%,0%)" stroke-width="0.05" /><circle cx="2.66666666667" cy="16.0" fill="rgb(100%,100%,100%)" r="0.25" stroke="rgb(0%,0%,0%)" stroke-width="0.05" /><circle cx="1.66666666667" cy="16.0" fill="rgb(100%,100%,100%)" r="0.25" stroke="rgb(0%,0%,0%)" stroke-width="0.05" /><circle cx="0.666666666667" cy="16.0" fill="rgb(100%,100%,100%)" r="0.25" stroke="rgb(0%,0%,0%)" stroke-width="0.05" /><circle cx="-0.333333333333" cy="16.0" fill="rgb(100%,100%,100%)" r="0.25" stroke="rgb(0%,0%,0%)" stroke-width="0.05" /><circle cx="-1.33333333333" cy="16.0" fill="rgb(100%,100%,100%)" r="0.25" stroke="rgb(0%,0%,0%)" stroke-width="0.05" /><circle cx="-2.33333333333" cy="16.0" fill="rgb(100%,100%,100%)" r="0.25" stroke="rgb(0%,0%,0%)" stroke-width="0.05" /><circle cx="-3.33333333333" cy="16.0" fill="rgb(100%,100%,100%)" r="0.25" stroke="rgb(0%,0%,0%)" stroke-width="0.05" /><circle cx="-4.33333333333" cy="16.0" fill="rgb(100%,100%,100%)" r="0.25" stroke="rgb(0%,0%,0%)" stroke-width="0.05" /><circle cx="-5.33333333333" cy="16.0" fill="rgb(100%,100%,100%)" r="0.25" stroke="rgb(0%,0%,0%)" stroke-width="0.05" /><circle cx="11.3333333333" cy="17.0" fill="rgb(100%,100%,100%)" r="0.25" stroke="rgb(0%,0%,0%)" stroke-width="0.05" /><circle cx="10.3333333333" cy="17.0" fill="rgb(100%,100%,100%)" r="0.25" stroke="rgb(0%,0%,0%)" stroke-width="0.05" /><circle cx="9.33333333333" cy="17.0" fill="rgb(100%,100%,100%)" r="0.25" stroke="rgb(0%,0%,0%)" stroke-width="0.05" /><circle cx="8.33333333333" cy="17.0" fill="rgb(100%,100%,100%)" r="0.25" stroke="rgb(0%,0%,0%)" stroke-width="0.05" /><circle cx="7.33333333333" cy="17.0" fill="rgb(100%,100%,100%)" r="0.25" stroke="rgb(0%,0%,0%)" stroke-width="0.05" /><circle cx="6.33333333333" cy="17.0" fill="rgb(100%,100%,100%)" r="0.25" stroke="rgb(0%,0%,0%)" stroke-width="0.05" /><circle cx="5.33333333333" cy="17.0" fill="rgb(100%,100%,100%)" r="0.25" stroke="rgb(0%,0%,0%)" stroke-width="0.05" /><circle cx="4.33333333333" cy="17.0" fill="rgb(100%,100%,100%)" r="0.25" stroke="rgb(0%,0%,0%)" stroke-width="0.05" /><circle cx="3.33333333333" cy="17.0" fill="rgb(100%,100%,100%)" r="0.25" stroke="rgb(0%,0%,0%)" stroke-width="0.05" /><circle cx="2.33333333333" cy="17.0" fill="rgb(100%,100%,100%)" r="0.25" stroke="rgb(0%,0%,0%)" stroke-width="0.05" /><circle cx="1.33333333333" cy="17.0" fill="rgb(100%,100%,100%)" r="0.25" stroke="rgb(0%,0%,0%)" stroke-width="0.05" /><circle cx="0.333333333333" cy="17.0" fill="rgb(100%,100%,100%)" r="0.25" stroke="rgb(0%,0%,0%)" stroke-width="0.05" /><circle cx="-0.666666666667" cy="17.0" fill="rgb(100%,100%,100%)" r="0.25" stroke="rgb(0%,0%,0%)" stroke-width="0.05" /><circle cx="-1.66666666667" cy="17.0" fill="rgb(100%,100%,100%)" r="0.25" stroke="rgb(0%,0%,0%)" stroke-width="0.05" /><circle cx="-2.66666666667" cy="17.0" fill="rgb(100%,100%,100%)" r="0.25" stroke="rgb(0%,0%,0%)" stroke-width="0.05" /><circle cx="-3.66666666667" cy="17.0" fill="rgb(100%,100%,100%)" r="0.25" stroke="rgb(0%,0%,0%)" stroke-width="0.05" /><circle cx="-4.66666666667" cy="17.0" fill="rgb(100%,100%,100%)" r="0.25" stroke="rgb(0%,0%,0%)" stroke-width="0.05" /><circle cx="-5.66666666667" cy="17.0" fill="rgb(100%,100%,100%)" r="0.25" stroke="rgb(0%,0%,0%)" stroke-width="0.05" /><circle cx="12.0" cy="18.0" fill="rgb(100%,100%,100%)" r="0.25" stroke="rgb(0%,0%,0%)" stroke-width="0.05" /><circle cx="11.0" cy="18.0" fill="rgb(100%,100%,100%)" r="0.25" stroke="rgb(0%,0%,0%)" stroke-width="0.05" /><circle cx="10.0" cy="18.0" fill="rgb(100%,100%,100%)" r="0.25" stroke="rgb(0%,0%,0%)" stroke-width="0.05" /><circle cx="9.0" cy="18.0" fill="rgb(100%,100%,100%)" r="0.25" stroke="rgb(0%,0%,0%)" stroke-width="0.05" /><circle cx="8.0" cy="18.0" fill="rgb(100%,100%,100%)" r="0.25" stroke="rgb(0%,0%,0%)" stroke-width="0.05" /><circle cx="7.0" cy="18.0" fill="rgb(100%,100%,100%)" r="0.25" stroke="rgb(0%,0%,0%)" stroke-width="0.05" /><circle cx="6.0" cy="18.0" fill="rgb(100%,100%,100%)" r="0.25" stroke="rgb(0%,0%,0%)" stroke-width="0.05" /><circle cx="5.0" cy="18.0" fill="rgb(100%,100%,100%)" r="0.25" stroke="rgb(0%,0%,0%)" stroke-width="0.05" /><circle cx="4.0" cy="18.0" fill="rgb(100%,100%,100%)" r="0.25" stroke="rgb(0%,0%,0%)" stroke-width="0.05" /><circle cx="3.0" cy="18.0" fill="rgb(100%,100%,100%)" r="0.25" stroke="rgb(0%,0%,0%)" stroke-width="0.05" /><circle cx="2.0" cy="18.0" fill="rgb(100%,100%,100%)" r="0.25" stroke="rgb(0%,0%,0%)" stroke-width="0.05" /><circle cx="1.0" cy="18.0" fill="rgb(100%,100%,100%)" r="0.25" stroke="rgb(0%,0%,0%)" stroke-width="0.05" /><circle cx="-8.881784197e-16" cy="18.0" fill="rgb(100%,100%,100%)" r="0.25" stroke="rgb(0%,0%,0%)" stroke-width="0.05" /><circle cx="-1.0" cy="18.0" fill="rgb(100%,100%,100%)" r="0.25" stroke="rgb(0%,0%,0%)" stroke-width="0.05" /><circle cx="-2.0" cy="18.0" fill="rgb(100%,100%,100%)" r="0.25" stroke="rgb(0%,0%,0%)" stroke-width="0.05" /><circle cx="-3.0" cy="18.0" fill="rgb(100%,100%,100%)" r="0.25" stroke="rgb(0%,0%,0%)" stroke-width="0.05" /><circle cx="-4.0" cy="18.0" fill="rgb(100%,100%,100%)" r="0.25" stroke="rgb(0%,0%,0%)" stroke-width="0.05" /><circle cx="-5.0" cy="18.0" fill="rgb(100%,100%,100%)" r="0.25" stroke="rgb(0%,0%,0%)" stroke-width="0.05" /><circle cx="-6.0" cy="18.0" fill="rgb(100%,100%,100%)" r="0.25" stroke="rgb(0%,0%,0%)" stroke-width="0.05" /></g><g id="path"><line stroke="rgb(0%,0%,0%)" stroke-dasharray="[]" stroke-width="0.05" x1="0" x2="-0.333333333333" y1="0" y2="1.0" /><line stroke="rgb(0%,0%,0%)" stroke-dasharray="[]" stroke-width="0.05" x1="-0.333333333333" x2="0.333333333333" y1="1.0" y2="2.0" /><line stroke="rgb(0%,0%,0%)" stroke-dasharray="[]" stroke-width="0.05" x1="0.333333333333" x2="0.0" y1="2.0" y2="3.0" /><line stroke="rgb(0%,0%,0%)" stroke-dasharray="[]" stroke-width="0.05" x1="0.0" x2="-0.333333333333" y1="3.0" y2="4.0" /><line stroke="rgb(0%,0%,0%)" stroke-dasharray="[]" stroke-width="0.05" x1="-0.333333333333" x2="-0.666666666667" y1="4.0" y2="5.0" /><line stroke="rgb(0%,0%,0%)" stroke-dasharray="[]" stroke-width="0.05" x1="-0.666666666667" x2="-1.11022302463e-16" y1="5.0" y2="6.0" /><line stroke="rgb(0%,0%,0%)" stroke-dasharray="[]" stroke-width="0.05" x1="-1.11022302463e-16" x2="-0.333333333333" y1="6.0" y2="7.0" /><line stroke="rgb(0%,0%,0%)" stroke-dasharray="[]" stroke-width="0.05" x1="-0.333333333333" x2="0.333333333333" y1="7.0" y2="8.0" /><line stroke="rgb(0%,0%,0%)" stroke-dasharray="[]" stroke-width="0.05" x1="0.333333333333" x2="0.0" y1="8.0" y2="9.0" /><line stroke="rgb(0%,0%,0%)" stroke-dasharray="[]" stroke-width="0.05" x1="0.0" x2="-0.333333333333" y1="9.0" y2="10.0" /><line stroke="rgb(0%,0%,0%)" stroke-dasharray="[]" stroke-width="0.05" x1="-0.333333333333" x2="-0.666666666667" y1="10.0" y2="11.0" /><line stroke="rgb(0%,0%,0%)" stroke-dasharray="[]" stroke-width="0.05" x1="-0.666666666667" x2="0.0" y1="11.0" y2="12.0" /><line stroke="rgb(0%,0%,0%)" stroke-dasharray="[]" stroke-width="0.05" x1="0.0" x2="-0.333333333333" y1="12.0" y2="13.0" /><line stroke="rgb(0%,0%,0%)" stroke-dasharray="[]" stroke-width="0.05" x1="-0.333333333333" x2="0.333333333333" y1="13.0" y2="14.0" /><line stroke="rgb(0%,0%,0%)" stroke-dasharray="[]" stroke-width="0.05" x1="0.333333333333" x2="-4.4408920985e-16" y1="14.0" y2="15.0" /><line stroke="rgb(0%,0%,0%)" stroke-dasharray="[]" stroke-width="0.05" x1="-4.4408920985e-16" x2="-0.333333333333" y1="15.0" y2="16.0" /><line stroke="rgb(0%,0%,0%)" stroke-dasharray="[]" stroke-width="0.05" x1="-0.333333333333" x2="-0.666666666667" y1="16.0" y2="17.0" /><line stroke="rgb(0%,0%,0%)" stroke-dasharray="[]" stroke-width="0.05" x1="-0.666666666667" x2="-8.881784197e-16" y1="17.0" y2="18.0" /><circle cx="0" cy="0" fill="rgb(0%,0%,0%)" r="0.25" stroke="rgb(0%,0%,0%)" stroke-width="0.05" /><circle cx="-0.333333333333" cy="1.0" fill="rgb(0%,0%,0%)" r="0.25" stroke="rgb(0%,0%,0%)" stroke-width="0.05" /><circle cx="0.333333333333" cy="2.0" fill="rgb(0%,0%,0%)" r="0.25" stroke="rgb(0%,0%,0%)" stroke-width="0.05" /><circle cx="0.0" cy="3.0" fill="rgb(0%,0%,0%)" r="0.25" stroke="rgb(0%,0%,0%)" stroke-width="0.05" /><circle cx="-0.333333333333" cy="4.0" fill="rgb(0%,0%,0%)" r="0.25" stroke="rgb(0%,0%,0%)" stroke-width="0.05" /><circle cx="-0.666666666667" cy="5.0" fill="rgb(0%,0%,0%)" r="0.25" stroke="rgb(0%,0%,0%)" stroke-width="0.05" /><circle cx="-1.11022302463e-16" cy="6.0" fill="rgb(0%,0%,0%)" r="0.25" stroke="rgb(0%,0%,0%)" stroke-width="0.05" /><circle cx="-0.333333333333" cy="7.0" fill="rgb(0%,0%,0%)" r="0.25" stroke="rgb(0%,0%,0%)" stroke-width="0.05" /><circle cx="0.333333333333" cy="8.0" fill="rgb(0%,0%,0%)" r="0.25" stroke="rgb(0%,0%,0%)" stroke-width="0.05" /><circle cx="0.0" cy="9.0" fill="rgb(0%,0%,0%)" r="0.25" stroke="rgb(0%,0%,0%)" stroke-width="0.05" /><circle cx="-0.333333333333" cy="10.0" fill="rgb(0%,0%,0%)" r="0.25" stroke="rgb(0%,0%,0%)" stroke-width="0.05" /><circle cx="-0.666666666667" cy="11.0" fill="rgb(0%,0%,0%)" r="0.25" stroke="rgb(0%,0%,0%)" stroke-width="0.05" /><circle cx="0.0" cy="12.0" fill="rgb(0%,0%,0%)" r="0.25" stroke="rgb(0%,0%,0%)" stroke-width="0.05" /><circle cx="-0.333333333333" cy="13.0" fill="rgb(0%,0%,0%)" r="0.25" stroke="rgb(0%,0%,0%)" stroke-width="0.05" /><circle cx="0.333333333333" cy="14.0" fill="rgb(0%,0%,0%)" r="0.25" stroke="rgb(0%,0%,0%)" stroke-width="0.05" /><circle cx="-4.4408920985e-16" cy="15.0" fill="rgb(0%,0%,0%)" r="0.25" stroke="rgb(0%,0%,0%)" stroke-width="0.05" /><circle cx="-0.333333333333" cy="16.0" fill="rgb(0%,0%,0%)" r="0.25" stroke="rgb(0%,0%,0%)" stroke-width="0.05" /><circle cx="-0.666666666667" cy="17.0" fill="rgb(0%,0%,0%)" r="0.25" stroke="rgb(0%,0%,0%)" stroke-width="0.05" /><circle cx="-8.881784197e-16" cy="18.0" fill="rgb(0%,0%,0%)" r="0.25" stroke="rgb(0%,0%,0%)" stroke-width="0.05" /></g></g></svg>